SplineFontDB: 1.0
FontName: ScidbCircled
FullName: ScidbCircled
FamilyName: Scidb Circled
Weight: Book
Copyright: Copyright [c] - Roger White - 1998 - All Rights Reserved - see .txt file for terms for distribution and use.
Version: 1.00
ItalicAngle: 0
UnderlinePosition: -75
UnderlineWidth: 50
Ascent: 800
Descent: 200
Order2: 1
XUID: [1021 555 146130107 12771670]
FSType: 0
OS2Version: 0
OS2_WeightWidthSlopeOnly: 0
OS2_UseTypoMetrics: 1
CreationTime: -2082844800
ModificationTime: 1368533048
PfmFamily: 81
TTFWeight: 400
TTFWidth: 5
LineGap: 0
VLineGap: 0
Panose: 5 0 5 9 0 0 0 0 0 0
OS2TypoAscent: 0
OS2TypoAOffset: 1
OS2TypoDescent: 182
OS2TypoDOffset: 1
OS2TypoLinegap: 0
OS2WinAscent: 0
OS2WinAOffset: 1
OS2WinDescent: 0
OS2WinDOffset: 1
HheadAscent: 0
HheadAOffset: 1
HheadDescent: 0
HheadDOffset: 1
OS2SubXSize: 500
OS2SubYSize: 500
OS2SubXOff: 0
OS2SubYOff: -500
OS2SupXSize: 500
OS2SupYSize: 500
OS2SupXOff: 0
OS2SupYOff: 250
OS2StrikeYSize: 50
OS2StrikeYPos: 250
OS2Vendor: 'DTPS'
TtfTable: prep 20
\H2^3!0)]:5TR'P*j@:>YTOha
EndTtf
TtfTable: fpgm 156
[g**@"9S]+!%]6_+D>1oYQH1A+D>1o;HU.,.iY\s.p4GTbUk@X&f3P[/5*35:foh!+^$BJZiC(+
!!ajT#:?Y[-EmJ#/M&+hYQ,n70-_UD!*!&Dg`-/o(Heo(.^/n?/f-XS""GlR0<bF$6EgJ865Mbg
""LMU6QiT5<*1<J!(5N\YQ.$8r)jguYQH@,/?f+Aln&2;
EndTtf
TtfTable: cvt  72
!!*'!s8W-!s8W-!s8W-!s8W-!s8W-!!-eNB!(?q<!:Bgezzz"#0eC!?2"H!G2=!zzz
EndTtf
TtfTable: maxp 32
!!*'"!%e2.!!WF\!!WE*!!<3(!!iQ)!&4L-!!*'#
EndTtf
LangName: 1033 "" "" "Regular" "" "" "Version 1.00" "" "Created by Type-Designer 3.0" 
Encoding: UnicodeBmp
UnicodeInterp: none
NameList: Adobe Glyph List
DisplaySize: -48
AntiAlias: 1
FitToEm: 1
WinInfo: 60 15 8
BeginChars: 65537 45
StartChar: .notdef
Encoding: 65536 -1 0
Width: 502
Flags: W
Fore
-1 0 m 1,0,-1
 499 0 l 1,1,-1
 499 500 l 1,2,-1
 -1 500 l 1,3,-1
 -1 0 l 1,0,-1
9 10 m 1,4,-1
 9 490 l 1,5,-1
 489 490 l 1,6,-1
 489 10 l 1,7,-1
 9 10 l 1,4,-1
EndSplineSet
EndChar
StartChar: exclam
Encoding: 33 33 2
Width: 850
Flags: W
Fore
3 423 m 0,0,1
 2 412 2 412 2 392 c 0,2,3
 2 314 2 314 30.5 242 c 128,-1,4
 59 170 59 170 110.5 114 c 128,-1,5
 162 58 162 58 231 23.5 c 128,-1,6
 300 -11 300 -11 379 -17 c 0,7,8
 389 -18 389 -18 410 -18 c 0,9,10
 488 -18 488 -18 560 10.5 c 128,-1,11
 632 39 632 39 688.5 90.5 c 128,-1,12
 745 142 745 142 779 211.5 c 128,-1,13
 813 281 813 281 819 360 c 0,14,15
 820 371 820 371 820 391 c 0,16,17
 820 469 820 469 791.5 541 c 128,-1,18
 763 613 763 613 711.5 669 c 128,-1,19
 660 725 660 725 591 759 c 128,-1,20
 522 793 522 793 443 799 c 0,21,22
 432 800 432 800 412 800 c 0,23,24
 334 800 334 800 262 771.5 c 128,-1,25
 190 743 190 743 134 691.5 c 128,-1,26
 78 640 78 640 43.5 571 c 128,-1,27
 9 502 9 502 3 423 c 0,0,1
350 343 m 2,28,-1
 350 620 l 2,29,30
 350 656 350 656 369 675 c 0,31,32
 387 693 387 693 413 693 c 0,33,34
 437 693 437 693 456 674 c 256,35,36
 475 655 475 655 475 621 c 2,37,-1
 475 343 l 2,38,39
 475 308 475 308 458 290 c 0,40,41
 442 271 442 271 414 271 c 0,42,43
 388 271 388 271 370 290 c 0,44,45
 350 309 350 309 350 343 c 2,28,-1
413 97 m 256,46,47
 385 97 385 97 363 117 c 0,48,49
 342 140 342 140 342 166 c 0,50,51
 342 193 342 193 363 216 c 0,52,53
 383 236 383 236 413 236 c 0,54,55
 442 236 442 236 461 216 c 0,56,57
 481 197 481 197 482 166 c 0,58,59
 482 138 482 138 461 117 c 0,60,61
 441 97 441 97 413 97 c 256,46,47
EndSplineSet
EndChar
StartChar: dollar
Encoding: 36 36 3
Width: 850
Flags: W
Fore
3 423 m 0,0,1
 2 412 2 412 2 392 c 0,2,3
 2 314 2 314 30.5 242 c 128,-1,4
 59 170 59 170 110.5 114 c 128,-1,5
 162 58 162 58 231 23.5 c 128,-1,6
 300 -11 300 -11 379 -17 c 0,7,8
 389 -18 389 -18 410 -18 c 0,9,10
 488 -18 488 -18 560 10.5 c 128,-1,11
 632 39 632 39 688.5 90.5 c 128,-1,12
 745 142 745 142 779 211.5 c 128,-1,13
 813 281 813 281 819 360 c 0,14,15
 820 371 820 371 820 391 c 0,16,17
 820 469 820 469 791.5 541 c 128,-1,18
 763 613 763 613 711.5 669 c 128,-1,19
 660 725 660 725 591 759 c 128,-1,20
 522 793 522 793 443 799 c 0,21,22
 432 800 432 800 412 800 c 0,23,24
 334 800 334 800 262 771.5 c 128,-1,25
 190 743 190 743 134 691.5 c 128,-1,26
 78 640 78 640 43.5 571 c 128,-1,27
 9 502 9 502 3 423 c 0,0,1
388 221 m 1,28,-1
 388 344 l 1,29,30
 381 347 381 347 368 351 c 0,31,32
 343 358 343 358 327 365 c 0,33,34
 306 373 306 373 288 383 c 0,35,36
 212 427 212 427 210 505 c 0,37,38
 210 546 210 546 225 579 c 0,39,40
 242 616 242 616 264 637 c 0,41,42
 294 664 294 664 322 674 c 0,43,44
 351 688 351 688 388 691 c 1,45,-1
 388 728 l 2,46,47
 388 752 388 752 413 752 c 0,48,49
 437 752 437 752 437 728 c 2,50,-1
 437 691 l 1,51,52
 493 688 493 688 535 670 c 0,53,54
 577 651 577 651 577 605 c 0,55,56
 577 580 577 580 561 564 c 1,57,58
 548 546 548 546 522 546 c 1,59,60
 503 549 503 549 498 552 c 0,61,62
 496 553 496 553 492 555 c 0,63,64
 488 558 488 558 483 560 c 0,65,66
 477 563 477 563 467 567 c 0,67,68
 461 570 461 570 452 573 c 0,69,70
 442 575 442 575 437 575 c 1,71,-1
 437 462 l 1,72,73
 489 448 489 448 527 425 c 0,74,75
 566 403 566 403 592 367 c 0,76,77
 616 331 616 331 616 282 c 0,78,79
 616 243 616 243 602 212 c 0,80,81
 589 181 589 181 563 153 c 0,82,83
 540 128 540 128 506 113 c 0,84,85
 475 98 475 98 437 95 c 1,86,-1
 437 59 l 2,87,88
 437 36 437 36 411 36 c 0,89,90
 388 36 388 36 388 59 c 2,91,-1
 388 95 l 1,92,93
 347 95 347 95 302 108 c 0,94,95
 258 119 258 119 232 138 c 0,96,97
 209 156 209 156 206 188 c 1,98,99
 209 212 209 212 223 234 c 0,100,101
 238 254 238 254 263 254 c 0,102,103
 281 254 281 254 300 246 c 0,104,105
 344 221 344 221 388 221 c 1,28,-1
437 221 m 1,106,107
 456 221 456 221 469 237 c 0,108,109
 482 255 482 255 482 275 c 256,110,111
 482 295 482 295 471 311 c 0,112,113
 461 326 461 326 437 332 c 1,114,-1
 437 221 l 1,106,107
388 477 m 1,115,-1
 388 575 l 1,116,117
 369 572 369 572 356 558 c 0,118,119
 345 544 345 544 343 524 c 1,120,121
 345 508 345 508 355 494 c 0,122,123
 366 482 366 482 388 477 c 1,115,-1
EndSplineSet
EndChar
StartChar: percent
Encoding: 37 37 4
Width: 850
Flags: W
Fore
3 423 m 0,0,1
 2 412 2 412 2 392 c 0,2,3
 2 314 2 314 30.5 242 c 128,-1,4
 59 170 59 170 110.5 114 c 128,-1,5
 162 58 162 58 231 23.5 c 128,-1,6
 300 -11 300 -11 379 -17 c 0,7,8
 389 -18 389 -18 410 -18 c 0,9,10
 488 -18 488 -18 560 10.5 c 128,-1,11
 632 39 632 39 688.5 90.5 c 128,-1,12
 745 142 745 142 779 211.5 c 128,-1,13
 813 281 813 281 819 360 c 0,14,15
 820 371 820 371 820 391 c 0,16,17
 820 469 820 469 791.5 541 c 128,-1,18
 763 613 763 613 711.5 669 c 128,-1,19
 660 725 660 725 591 759 c 128,-1,20
 522 793 522 793 443 799 c 0,21,22
 432 800 432 800 412 800 c 0,23,24
 334 800 334 800 262 771.5 c 128,-1,25
 190 743 190 743 134 691.5 c 128,-1,26
 78 640 78 640 43.5 571 c 128,-1,27
 9 502 9 502 3 423 c 0,0,1
153 559 m 0,28,29
 153 593 153 593 169 622 c 0,30,31
 186 653 186 653 214 669 c 0,32,33
 243 687 243 687 278 687 c 0,34,35
 312 687 312 687 340 669 c 0,36,37
 367 653 367 653 386 622 c 0,38,39
 402 594 402 594 402 559 c 0,40,41
 402 523 402 523 386 494 c 0,42,43
 369 463 369 463 340 447 c 0,44,45
 312 429 312 429 278 429 c 0,46,47
 242 429 242 429 213 447 c 0,48,49
 187 462 187 462 168 494 c 0,50,51
 153 524 153 524 153 559 c 0,28,29
248 195 m 2,52,-1
 505 645 l 2,53,54
 517 665 517 665 529 677 c 0,55,56
 538 687 538 687 555 687 c 0,57,58
 575 687 575 687 589 674 c 0,59,60
 604 662 604 662 604 644 c 0,61,62
 604 633 604 633 599 623 c 2,63,64
 599 622 599 622 597 617 c 0,65,66
 593 607 593 607 590 603 c 0,67,68
 586 597 586 597 585 596 c 0,69,70
 579 586 579 586 577 583 c 2,71,-1
 320 134 l 2,72,73
 306 111 306 111 295 101 c 0,74,75
 283 91 283 91 269 91 c 0,76,77
 249 91 249 91 235 104 c 0,78,79
 221 118 221 118 221 135 c 0,80,81
 221 158 221 158 248 195 c 2,52,-1
422 220 m 0,82,83
 422 253 422 253 439 285 c 0,84,85
 456 315 456 315 485 332 c 256,86,87
 514 349 514 349 548 350 c 0,88,89
 581 350 581 350 611 332 c 0,90,91
 640 314 640 314 656 284 c 0,92,93
 672 255 672 255 672 220 c 0,94,95
 672 187 672 187 656 156 c 0,96,97
 640 128 640 128 611 109 c 0,98,99
 583 91 583 91 548 91 c 0,100,101
 514 91 514 91 484 109 c 0,102,103
 455 127 455 127 438 156 c 0,104,105
 422 188 422 188 422 220 c 0,82,83
243 559 m 256,106,107
 243 543 243 543 252 531 c 0,108,109
 261 520 261 520 278 520 c 0,110,111
 292 520 292 520 301 531 c 0,112,113
 310 543 310 543 310 559 c 256,114,115
 310 575 310 575 301 585 c 0,116,117
 292 596 292 596 278 596 c 0,118,119
 261 596 261 596 252 585 c 0,120,121
 243 575 243 575 243 559 c 256,106,107
515 220 m 0,122,123
 515 205 515 205 524 193 c 0,124,125
 533 183 533 183 548 183 c 0,126,127
 564 183 564 183 573 193 c 0,128,129
 582 204 582 204 582 220 c 256,130,131
 582 236 582 236 573 246 c 0,132,133
 564 257 564 257 548 257 c 0,134,135
 533 257 533 257 524 246 c 0,136,137
 515 236 515 236 515 220 c 0,122,123
EndSplineSet
EndChar
StartChar: ampersand
Encoding: 38 38 5
Width: 850
Flags: W
Fore
3 423 m 0,0,1
 2 412 2 412 2 392 c 0,2,3
 2 314 2 314 30.5 242 c 128,-1,4
 59 170 59 170 110.5 114 c 128,-1,5
 162 58 162 58 231 23.5 c 128,-1,6
 300 -11 300 -11 379 -17 c 0,7,8
 389 -18 389 -18 410 -18 c 0,9,10
 488 -18 488 -18 560 10.5 c 128,-1,11
 632 39 632 39 688.5 90.5 c 128,-1,12
 745 142 745 142 779 211.5 c 128,-1,13
 813 281 813 281 819 360 c 0,14,15
 820 371 820 371 820 391 c 0,16,17
 820 469 820 469 791.5 541 c 128,-1,18
 763 613 763 613 711.5 669 c 128,-1,19
 660 725 660 725 591 759 c 128,-1,20
 522 793 522 793 443 799 c 0,21,22
 432 800 432 800 412 800 c 0,23,24
 334 800 334 800 262 771.5 c 128,-1,25
 190 743 190 743 134 691.5 c 128,-1,26
 78 640 78 640 43.5 571 c 128,-1,27
 9 502 9 502 3 423 c 0,0,1
264 428 m 1,28,29
 211 479 211 479 209 541 c 0,30,31
 209 582 209 582 234 613 c 0,32,33
 258 645 258 645 295 661 c 0,34,35
 337 677 337 677 374 677 c 0,36,37
 414 677 414 677 453 662 c 0,38,39
 492 645 492 645 515 616 c 0,40,41
 538 589 538 589 540 544 c 0,42,43
 540 517 540 517 529 489 c 0,44,45
 518 462 518 462 495 438 c 256,46,47
 472 414 472 414 441 398 c 1,48,-1
 523 305 l 1,49,50
 526 308 526 308 543 332 c 0,51,52
 559 355 559 355 576 370 c 0,53,54
 590 382 590 382 607 382 c 0,55,56
 619 382 619 382 635 374 c 0,57,58
 649 365 649 365 657 353 c 0,59,60
 665 340 665 340 665 327 c 0,61,62
 665 308 665 308 654 291 c 0,63,64
 640 272 640 272 620 253 c 0,65,66
 615 248 615 248 609 242 c 0,67,68
 595 229 595 229 594 226 c 1,69,70
 596 223 596 223 604 215 c 2,71,-1
 615 203 l 2,72,73
 627 191 627 191 637 176 c 0,74,75
 644 163 644 163 644 149 c 0,76,77
 644 125 644 125 624 111 c 0,78,79
 605 95 605 95 580 95 c 0,80,81
 565 95 565 95 552 103 c 0,82,83
 538 113 538 113 530 123 c 1,84,-1
 529 125 l 1,85,86
 515 140 515 140 507 151 c 1,87,88
 431 87 431 87 328 87 c 0,89,90
 264 87 264 87 212 116 c 0,91,92
 161 145 161 145 143 203 c 0,93,94
 136 227 136 227 134 258 c 0,95,96
 136 311 136 311 165 353 c 0,97,98
 195 398 195 398 264 428 c 1,28,29
438 230 m 1,99,-1
 331 350 l 1,100,101
 298 329 298 329 281 309 c 0,102,103
 265 290 265 290 259 258 c 1,104,105
 261 226 261 226 282 207 c 0,106,107
 305 187 305 187 338 187 c 0,108,109
 394 190 394 190 438 230 c 1,99,-1
371 469 m 1,110,111
 398 482 398 482 417 499 c 0,112,113
 434 513 434 513 434 538 c 0,114,115
 434 560 434 560 419 575 c 0,116,117
 405 591 405 591 379 591 c 0,118,119
 354 591 354 591 340 576 c 0,120,121
 325 562 325 562 323 539 c 1,122,123
 335 504 335 504 371 469 c 1,110,111
EndSplineSet
EndChar
StartChar: plus
Encoding: 43 43 6
Width: 850
Flags: W
Fore
3 423 m 0,0,1
 2 412 2 412 2 392 c 0,2,3
 2 314 2 314 30.5 242 c 128,-1,4
 59 170 59 170 110.5 114 c 128,-1,5
 162 58 162 58 231 23.5 c 128,-1,6
 300 -11 300 -11 379 -17 c 0,7,8
 389 -18 389 -18 410 -18 c 0,9,10
 488 -18 488 -18 560 10.5 c 128,-1,11
 632 39 632 39 688.5 90.5 c 128,-1,12
 745 142 745 142 779 211.5 c 128,-1,13
 813 281 813 281 819 360 c 0,14,15
 820 371 820 371 820 391 c 0,16,17
 820 469 820 469 791.5 541 c 128,-1,18
 763 613 763 613 711.5 669 c 128,-1,19
 660 725 660 725 591 759 c 128,-1,20
 522 793 522 793 443 799 c 0,21,22
 432 800 432 800 412 800 c 0,23,24
 334 800 334 800 262 771.5 c 128,-1,25
 190 743 190 743 134 691.5 c 128,-1,26
 78 640 78 640 43.5 571 c 128,-1,27
 9 502 9 502 3 423 c 0,0,1
355 454.5 m 1,28,-1
 355 571.5 l 2,29,30
 355 597.5 355 597.5 370 612.5 c 128,-1,32
 385 627.5 385 627.5 407 627.5 c 0,33,34
 430 627.5 430 627.5 446 612.5 c 0,35,36
 462 598.5 462 598.5 462 571.5 c 2,37,-1
 462 454.5 l 1,38,-1
 579 454.5 l 2,39,40
 606 454.5 606 454.5 620 438.5 c 0,41,42
 635 422.5 635 422.5 635 399.5 c 0,43,44
 635 375.625 635 375.625 620 362.5 c 0,45,46
 604 348.5 604 348.5 579 348.5 c 2,47,-1
 462 348.5 l 1,48,-1
 462 230.5 l 2,49,50
 462 205.5 462 205.5 446 189.5 c 0,51,52
 431 174.5 431 174.5 409 174.5 c 256,53,54
 390.75 174.5 390.75 174.5 372 189.5 c 0,55,56
 355 201.5 355 201.5 355 230.5 c 2,57,-1
 355 348.5 l 1,58,-1
 238 348.5 l 2,59,60
 214 348.5 214 348.5 197 363.5 c 1,61,62
 182 381.5 182 381.5 181 401.5 c 1,63,64
 183.211 424.711 183.211 424.711 197 438.5 c 0,65,66
 213 454.5 213 454.5 238 454.5 c 2,67,-1
 355 454.5 l 1,28,-1
EndSplineSet
EndChar
StartChar: hyphen
Encoding: 45 45 7
Width: 850
Flags: W
Fore
3 423 m 0,0,1
 2 412 2 412 2 392 c 0,2,3
 2 314 2 314 30.5 242 c 128,-1,4
 59 170 59 170 110.5 114 c 128,-1,5
 162 58 162 58 231 23.5 c 128,-1,6
 300 -11 300 -11 379 -17 c 0,7,8
 389 -18 389 -18 410 -18 c 0,9,10
 488 -18 488 -18 560 10.5 c 128,-1,11
 632 39 632 39 688.5 90.5 c 128,-1,12
 745 142 745 142 779 211.5 c 128,-1,13
 813 281 813 281 819 360 c 0,14,15
 820 371 820 371 820 391 c 0,16,17
 820 469 820 469 791.5 541 c 128,-1,18
 763 613 763 613 711.5 669 c 128,-1,19
 660 725 660 725 591 759 c 128,-1,20
 522 793 522 793 443 799 c 0,21,22
 432 800 432 800 412 800 c 0,23,24
 334 800 334 800 262 771.5 c 128,-1,25
 190 743 190 743 134 691.5 c 128,-1,26
 78 640 78 640 43.5 571 c 128,-1,27
 9 502 9 502 3 423 c 0,0,1
499 443.5 m 6,28,29
 528 443.5 528 443.5 543 428.5 c 260,30,31
 558 413.5 558 413.5 558 390.5 c 4,32,33
 558 366.5 558 366.5 543 353.5 c 4,34,35
 525.692 338.5 525.692 338.5 499 338.5 c 6,36,-1
 322 338.5 l 6,37,38
 294 338.5 294 338.5 276 353.5 c 4,39,40
 259 369.367 259 369.367 259 390.5 c 4,41,42
 259 409.5 259 409.5 277 427.5 c 4,43,44
 293 443.5 293 443.5 322 443.5 c 6,45,-1
 499 443.5 l 6,28,29
EndSplineSet
EndChar
StartChar: zero
Encoding: 48 48 8
Width: 850
Flags: W
Fore
3 423 m 0,0,1
 2 412 2 412 2 392 c 0,2,3
 2 314 2 314 30.5 242 c 128,-1,4
 59 170 59 170 110.5 114 c 128,-1,5
 162 58 162 58 231 23.5 c 128,-1,6
 300 -11 300 -11 379 -17 c 0,7,8
 389 -18 389 -18 410 -18 c 0,9,10
 488 -18 488 -18 560 10.5 c 128,-1,11
 632 39 632 39 688.5 90.5 c 128,-1,12
 745 142 745 142 779 211.5 c 128,-1,13
 813 281 813 281 819 360 c 0,14,15
 820 371 820 371 820 391 c 0,16,17
 820 469 820 469 791.5 541 c 128,-1,18
 763 613 763 613 711.5 669 c 128,-1,19
 660 725 660 725 591 759 c 128,-1,20
 522 793 522 793 443 799 c 0,21,22
 432 800 432 800 412 800 c 0,23,24
 334 800 334 800 262 771.5 c 128,-1,25
 190 743 190 743 134 691.5 c 128,-1,26
 78 640 78 640 43.5 571 c 128,-1,27
 9 502 9 502 3 423 c 0,0,1
163 399 m 256,28,29
 163 478 163 478 188 546 c 0,30,31
 215 614 215 614 268 657 c 0,32,33
 321 698 321 698 399 698 c 0,34,35
 459 698 459 698 504 674 c 0,36,37
 550 649 550 649 580 607 c 0,38,39
 608 567 608 567 624 511 c 0,40,41
 638 457 638 457 639 399 c 0,42,43
 639 326 639 326 612 254 c 0,44,45
 584 185 584 185 532 144 c 0,46,47
 478 102 478 102 399 102 c 0,48,49
 321 102 321 102 268 144 c 0,50,51
 215 185 215 185 188 254 c 0,52,53
 163 320 163 320 163 399 c 256,28,29
297 399 m 0,54,55
 297 357 297 357 307 321 c 0,56,57
 316 281 316 281 339 255 c 0,58,59
 363 228 363 228 399 228 c 0,60,61
 437 228 437 228 461 255 c 0,62,63
 483 278 483 278 494 320 c 0,64,65
 504 357 504 357 504 399 c 0,66,67
 504 442 504 442 494 479 c 0,68,69
 483 521 483 521 461 546 c 0,70,71
 437 573 437 573 399 573 c 0,72,73
 363 573 363 573 339 546 c 0,74,75
 315 518 315 518 307 479 c 0,76,77
 297 442 297 442 297 399 c 0,54,55
EndSplineSet
EndChar
StartChar: one
Encoding: 49 49 9
Width: 850
Flags: W
Fore
3 423 m 0,0,1
 2 412 2 412 2 392 c 0,2,3
 2 314 2 314 30.5 242 c 128,-1,4
 59 170 59 170 110.5 114 c 128,-1,5
 162 58 162 58 231 23.5 c 128,-1,6
 300 -11 300 -11 379 -17 c 0,7,8
 389 -18 389 -18 410 -18 c 0,9,10
 488 -18 488 -18 560 10.5 c 128,-1,11
 632 39 632 39 688.5 90.5 c 128,-1,12
 745 142 745 142 779 211.5 c 128,-1,13
 813 281 813 281 819 360 c 0,14,15
 820 371 820 371 820 391 c 0,16,17
 820 469 820 469 791.5 541 c 128,-1,18
 763 613 763 613 711.5 669 c 128,-1,19
 660 725 660 725 591 759 c 128,-1,20
 522 793 522 793 443 799 c 0,21,22
 432 800 432 800 412 800 c 0,23,24
 334 800 334 800 262 771.5 c 128,-1,25
 190 743 190 743 134 691.5 c 128,-1,26
 78 640 78 640 43.5 571 c 128,-1,27
 9 502 9 502 3 423 c 0,0,1
349 162 m 2,28,-1
 349 548 l 1,29,-1
 308 548 l 2,30,31
 280 548 280 548 265 566 c 0,32,33
 249 582 249 582 249 608 c 0,34,35
 249 633 249 633 265 650 c 0,36,37
 280 668 280 668 308 668 c 2,38,-1
 415 668 l 2,39,40
 478 668 478 668 479 603 c 2,41,-1
 479 162 l 2,42,43
 479 129 479 129 461 111 c 0,44,45
 445 93 445 93 415 93 c 256,46,47
 385 93 385 93 367 111 c 256,48,49
 349 129 349 129 349 162 c 2,28,-1
EndSplineSet
EndChar
StartChar: two
Encoding: 50 50 10
Width: 850
Flags: W
Fore
3 423 m 0,0,1
 2 412 2 412 2 392 c 0,2,3
 2 314 2 314 30.5 242 c 128,-1,4
 59 170 59 170 110.5 114 c 128,-1,5
 162 58 162 58 231 23.5 c 128,-1,6
 300 -11 300 -11 379 -17 c 0,7,8
 389 -18 389 -18 410 -18 c 0,9,10
 488 -18 488 -18 560 10.5 c 128,-1,11
 632 39 632 39 688.5 90.5 c 128,-1,12
 745 142 745 142 779 211.5 c 128,-1,13
 813 281 813 281 819 360 c 0,14,15
 820 371 820 371 820 391 c 0,16,17
 820 469 820 469 791.5 541 c 128,-1,18
 763 613 763 613 711.5 669 c 128,-1,19
 660 725 660 725 591 759 c 128,-1,20
 522 793 522 793 443 799 c 0,21,22
 432 800 432 800 412 800 c 0,23,24
 334 800 334 800 262 771.5 c 128,-1,25
 190 743 190 743 134 691.5 c 128,-1,26
 78 640 78 640 43.5 571 c 128,-1,27
 9 502 9 502 3 423 c 0,0,1
240 222 m 0,28,29
 260 243 260 243 293 278 c 2,30,-1
 300 285 l 2,31,32
 339 329 339 329 349 339 c 0,33,34
 357 349 357 349 373 366 c 0,35,36
 385 380 385 380 389 385 c 0,37,38
 427 438 427 438 438 460 c 0,39,40
 452 488 452 488 453 510 c 0,41,42
 453 534 453 534 439 546 c 1,43,44
 427 560 427 560 402 560 c 256,45,46
 377 560 377 560 365 545 c 0,47,48
 355 534 355 534 342 501 c 0,49,50
 332 474 332 474 319 456 c 0,51,52
 306 441 306 441 282 440 c 0,53,54
 255 440 255 440 237 456 c 0,55,56
 220 474 220 474 218 499 c 0,57,58
 218 549 218 549 244 592 c 0,59,60
 270 634 270 634 314 660 c 0,61,62
 362 684 362 684 410 684 c 0,63,64
 447 684 447 684 479 671 c 0,65,66
 510 661 510 661 537 636 c 0,67,68
 562 614 562 614 577 581 c 0,69,70
 592 550 592 550 592 512 c 0,71,72
 592 469 592 469 574 430 c 0,73,74
 560 398 560 398 534 365 c 0,75,76
 518 344 518 344 470 293 c 0,77,78
 431 251 431 251 410 222 c 1,79,-1
 546 222 l 2,80,81
 573 222 573 222 590 205 c 0,82,83
 604 188 604 188 606 162 c 0,84,85
 606 137 606 137 589 120 c 0,86,87
 574 102 574 102 544 102 c 2,88,-1
 289 102 l 2,89,90
 252 102 252 102 231 117 c 0,91,92
 212 132 212 132 210 158 c 0,93,94
 212 194 212 194 240 222 c 0,28,29
EndSplineSet
EndChar
StartChar: three
Encoding: 51 51 11
Width: 850
Flags: W
Fore
3 423 m 0,0,1
 2 412 2 412 2 392 c 0,2,3
 2 314 2 314 30.5 242 c 128,-1,4
 59 170 59 170 110.5 114 c 128,-1,5
 162 58 162 58 231 23.5 c 128,-1,6
 300 -11 300 -11 379 -17 c 0,7,8
 389 -18 389 -18 410 -18 c 0,9,10
 488 -18 488 -18 560 10.5 c 128,-1,11
 632 39 632 39 688.5 90.5 c 128,-1,12
 745 142 745 142 779 211.5 c 128,-1,13
 813 281 813 281 819 360 c 0,14,15
 820 371 820 371 820 391 c 0,16,17
 820 469 820 469 791.5 541 c 128,-1,18
 763 613 763 613 711.5 669 c 128,-1,19
 660 725 660 725 591 759 c 128,-1,20
 522 793 522 793 443 799 c 0,21,22
 432 800 432 800 412 800 c 0,23,24
 334 800 334 800 262 771.5 c 128,-1,25
 190 743 190 743 134 691.5 c 128,-1,26
 78 640 78 640 43.5 571 c 128,-1,27
 9 502 9 502 3 423 c 0,0,1
392 473 m 0,28,29
 441 486 441 486 441 527 c 0,30,31
 441 546 441 546 426 558 c 0,32,33
 410 569 410 569 383 569 c 1,34,35
 363 566 363 566 343 549 c 0,36,37
 334 542 334 542 324 533 c 0,38,39
 314 523 314 523 305 516 c 0,40,41
 286 501 286 501 266 500 c 0,42,43
 245 500 245 500 229 516 c 0,44,45
 215 533 215 533 213 560 c 1,46,47
 218 601 218 601 246 632 c 0,48,49
 272 661 272 661 314 678 c 0,50,51
 353 694 353 694 402 694 c 0,52,53
 444 694 444 694 484 673 c 0,54,55
 522 652 522 652 544 616 c 0,56,57
 566 581 566 581 566 536 c 0,58,59
 566 501 566 501 550 473 c 0,60,61
 535 443 535 443 504 423 c 1,62,63
 551 402 551 402 573 364 c 0,64,65
 595 327 595 327 595 280 c 0,66,67
 595 227 595 227 569 188 c 0,68,69
 543 147 543 147 498 123 c 0,70,71
 451 99 451 99 402 98 c 0,72,73
 356 98 356 98 306 116 c 0,74,75
 255 137 255 137 226 170 c 0,76,77
 194 205 194 205 194 251 c 0,78,79
 194 275 194 275 212 293 c 0,80,81
 229 311 229 311 254 311 c 0,82,83
 292 311 292 311 310 280 c 0,84,85
 337 231 337 231 378 225 c 1,86,87
 387 225 387 225 396 222 c 1,88,89
 425 223 425 223 443 243 c 256,90,91
 461 263 461 263 461 291 c 0,92,93
 461 315 461 315 446 333 c 0,94,95
 430 351 430 351 402 352 c 0,96,97
 374 354 374 354 367 356 c 1,98,99
 358 357 358 357 344 367 c 0,100,101
 327 381 327 381 324 414 c 1,102,103
 327 440 327 440 344 453 c 0,104,105
 358 463 358 463 392 473 c 0,28,29
EndSplineSet
EndChar
StartChar: four
Encoding: 52 52 12
Width: 850
Flags: W
Fore
3 423 m 0,0,1
 2 412 2 412 2 392 c 0,2,3
 2 314 2 314 30.5 242 c 128,-1,4
 59 170 59 170 110.5 114 c 128,-1,5
 162 58 162 58 231 23.5 c 128,-1,6
 300 -11 300 -11 379 -17 c 0,7,8
 389 -18 389 -18 410 -18 c 0,9,10
 488 -18 488 -18 560 10.5 c 128,-1,11
 632 39 632 39 688.5 90.5 c 128,-1,12
 745 142 745 142 779 211.5 c 128,-1,13
 813 281 813 281 819 360 c 0,14,15
 820 371 820 371 820 391 c 0,16,17
 820 469 820 469 791.5 541 c 128,-1,18
 763 613 763 613 711.5 669 c 128,-1,19
 660 725 660 725 591 759 c 128,-1,20
 522 793 522 793 443 799 c 0,21,22
 432 800 432 800 412 800 c 0,23,24
 334 800 334 800 262 771.5 c 128,-1,25
 190 743 190 743 134 691.5 c 128,-1,26
 78 640 78 640 43.5 571 c 128,-1,27
 9 502 9 502 3 423 c 0,0,1
346 633 m 2,28,29
 372 675 372 675 430 676 c 0,30,31
 457 676 457 676 481 665 c 0,32,33
 506 653 506 653 519 632 c 0,34,35
 533 610 533 610 533 582 c 2,36,-1
 533 338 l 1,37,-1
 558 338 l 2,38,39
 625 338 625 338 625 281 c 0,40,41
 625 256 625 256 609 238 c 0,42,43
 595 222 595 222 561 222 c 2,44,-1
 533 222 l 1,45,-1
 533 165 l 2,46,47
 533 132 533 132 515 115 c 0,48,49
 499 97 499 97 469 97 c 0,50,51
 441 97 441 97 425 116 c 0,52,53
 408 135 408 135 408 163 c 2,54,-1
 408 222 l 1,55,-1
 196 222 l 2,56,57
 164 222 164 222 147 236 c 0,58,59
 131 250 131 250 129 274 c 0,60,61
 129 299 129 299 146 324 c 2,62,-1
 346 633 l 2,28,29
287 338 m 1,63,-1
 408 338 l 1,64,-1
 408 541 l 1,65,-1
 407 541 l 1,66,-1
 287 338 l 1,63,-1
EndSplineSet
EndChar
StartChar: five
Encoding: 53 53 13
Width: 850
Flags: W
Fore
3 423 m 0,0,1
 2 412 2 412 2 392 c 0,2,3
 2 314 2 314 30.5 242 c 128,-1,4
 59 170 59 170 110.5 114 c 128,-1,5
 162 58 162 58 231 23.5 c 128,-1,6
 300 -11 300 -11 379 -17 c 0,7,8
 389 -18 389 -18 410 -18 c 0,9,10
 488 -18 488 -18 560 10.5 c 128,-1,11
 632 39 632 39 688.5 90.5 c 128,-1,12
 745 142 745 142 779 211.5 c 128,-1,13
 813 281 813 281 819 360 c 0,14,15
 820 371 820 371 820 391 c 0,16,17
 820 469 820 469 791.5 541 c 128,-1,18
 763 613 763 613 711.5 669 c 128,-1,19
 660 725 660 725 591 759 c 128,-1,20
 522 793 522 793 443 799 c 0,21,22
 432 800 432 800 412 800 c 0,23,24
 334 800 334 800 262 771.5 c 128,-1,25
 190 743 190 743 134 691.5 c 128,-1,26
 78 640 78 640 43.5 571 c 128,-1,27
 9 502 9 502 3 423 c 0,0,1
283 621 m 0,28,29
 286 650 286 650 299 666 c 0,30,31
 311 681 311 681 348 681 c 2,32,-1
 548 681 l 2,33,34
 577 681 577 681 592 664 c 0,35,36
 608 645 608 645 608 621 c 256,37,38
 608 597 608 597 592 579 c 0,39,40
 577 563 577 563 547 561 c 2,41,-1
 394 561 l 1,42,-1
 384 491 l 1,43,44
 418 498 418 498 442 498 c 0,45,46
 493 498 493 498 533 472 c 0,47,48
 571 448 571 448 592 403 c 0,49,50
 612 363 612 363 612 309 c 0,51,52
 612 252 612 252 584 203 c 0,53,54
 555 155 555 155 507 126 c 0,55,56
 457 98 457 98 401 98 c 0,57,58
 365 98 365 98 321 110 c 0,59,60
 280 120 280 120 248 146 c 0,61,62
 218 170 218 170 215 208 c 0,63,64
 215 233 215 233 233 251 c 0,65,66
 248 268 248 268 274 269 c 0,67,68
 293 269 293 269 316 255 c 0,69,70
 356 225 356 225 398 222 c 1,71,72
 420 224 420 224 436 233 c 0,73,74
 452 243 452 243 462 261 c 0,75,76
 472 282 472 282 473 308 c 0,77,78
 473 343 473 343 455 368 c 0,79,80
 436 393 436 393 404 393 c 0,81,82
 397 393 397 393 385 390 c 2,83,-1
 382 389 l 2,84,85
 373 386 373 386 356 378 c 0,86,87
 349 375 349 375 339 371 c 0,88,89
 332 367 332 367 331 367 c 0,90,91
 317 363 317 363 309 362 c 1,92,93
 260 365 260 365 260 418 c 2,94,-1
 260 420 l 2,95,96
 262 460 262 460 265 480 c 0,97,98
 268 511 268 511 274 548 c 0,99,100
 277 573 277 573 283 621 c 0,28,29
EndSplineSet
EndChar
StartChar: six
Encoding: 54 54 14
Width: 850
Flags: W
Fore
3 423 m 0,0,1
 2 412 2 412 2 392 c 0,2,3
 2 314 2 314 30.5 242 c 128,-1,4
 59 170 59 170 110.5 114 c 128,-1,5
 162 58 162 58 231 23.5 c 128,-1,6
 300 -11 300 -11 379 -17 c 0,7,8
 389 -18 389 -18 410 -18 c 0,9,10
 488 -18 488 -18 560 10.5 c 128,-1,11
 632 39 632 39 688.5 90.5 c 128,-1,12
 745 142 745 142 779 211.5 c 128,-1,13
 813 281 813 281 819 360 c 0,14,15
 820 371 820 371 820 391 c 0,16,17
 820 469 820 469 791.5 541 c 128,-1,18
 763 613 763 613 711.5 669 c 128,-1,19
 660 725 660 725 591 759 c 128,-1,20
 522 793 522 793 443 799 c 0,21,22
 432 800 432 800 412 800 c 0,23,24
 334 800 334 800 262 771.5 c 128,-1,25
 190 743 190 743 134 691.5 c 128,-1,26
 78 640 78 640 43.5 571 c 128,-1,27
 9 502 9 502 3 423 c 0,0,1
445 477 m 0,28,29
 495 477 495 477 531 451 c 0,30,31
 570 423 570 423 587 383 c 0,32,33
 607 343 607 343 607 297 c 0,34,35
 606 249 606 249 587 210 c 0,36,37
 568 173 568 173 538 149 c 0,38,39
 506 125 506 125 474 114 c 0,40,41
 441 104 441 104 406 102 c 0,42,43
 313 102 313 102 253 153 c 0,44,45
 194 202 194 202 192 298 c 0,46,47
 192 365 192 365 223 435 c 0,48,49
 255 505 255 505 299 559 c 0,50,51
 352 624 352 624 406 678 c 0,52,53
 428 697 428 697 453 697 c 0,54,55
 470 697 470 697 483 688 c 0,56,57
 498 680 498 680 507 666 c 0,58,59
 517 653 517 653 517 637 c 0,60,61
 517 618 517 618 501 599 c 0,62,63
 487 582 487 582 458 552 c 2,64,-1
 445 537 l 2,65,66
 429 519 429 519 422 511 c 0,67,68
 408 495 408 495 395 474 c 1,69,70
 400 475 400 475 414 476 c 128,-1,71
 428 477 428 477 445 477 c 0,28,29
400 228 m 0,72,73
 420 228 420 228 436 238 c 0,74,75
 452 247 452 247 463 264 c 0,76,77
 473 280 473 280 473 299 c 0,78,79
 473 319 473 319 463 336 c 0,80,81
 452 354 452 354 436 363 c 0,82,83
 418 373 418 373 400 373 c 0,84,85
 370 373 370 373 348 351 c 0,86,87
 327 331 327 331 327 299 c 0,88,89
 327 269 327 269 348 249 c 0,90,91
 371 228 371 228 400 228 c 0,72,73
EndSplineSet
EndChar
StartChar: seven
Encoding: 55 55 15
Width: 850
Flags: W
Fore
3 423 m 0,0,1
 2 412 2 412 2 392 c 0,2,3
 2 314 2 314 30.5 242 c 128,-1,4
 59 170 59 170 110.5 114 c 128,-1,5
 162 58 162 58 231 23.5 c 128,-1,6
 300 -11 300 -11 379 -17 c 0,7,8
 389 -18 389 -18 410 -18 c 0,9,10
 488 -18 488 -18 560 10.5 c 128,-1,11
 632 39 632 39 688.5 90.5 c 128,-1,12
 745 142 745 142 779 211.5 c 128,-1,13
 813 281 813 281 819 360 c 0,14,15
 820 371 820 371 820 391 c 0,16,17
 820 469 820 469 791.5 541 c 128,-1,18
 763 613 763 613 711.5 669 c 128,-1,19
 660 725 660 725 591 759 c 128,-1,20
 522 793 522 793 443 799 c 0,21,22
 432 800 432 800 412 800 c 0,23,24
 334 800 334 800 262 771.5 c 128,-1,25
 190 743 190 743 134 691.5 c 128,-1,26
 78 640 78 640 43.5 571 c 128,-1,27
 9 502 9 502 3 423 c 0,0,1
266 668 m 2,28,-1
 530 668 l 2,29,30
 546 668 546 668 564 660 c 0,31,32
 580 651 580 651 587 636 c 0,33,34
 596 621 596 621 596 603 c 0,35,36
 596 586 596 586 590 572 c 2,37,-1
 392 140 l 2,38,39
 381 120 381 120 367 107 c 0,40,41
 351 93 351 93 326 93 c 0,42,43
 300 93 300 93 280 110 c 0,44,45
 262 125 262 125 260 153 c 1,46,47
 262 172 262 172 268 185 c 2,48,-1
 439 548 l 1,49,-1
 268 548 l 2,50,51
 241 548 241 548 224 566 c 0,52,53
 209 581 209 581 207 608 c 0,54,55
 207 634 207 634 223 650 c 0,56,57
 238 668 238 668 266 668 c 2,28,-1
EndSplineSet
EndChar
StartChar: eight
Encoding: 56 56 16
Width: 850
Flags: W
Fore
3 423 m 0,0,1
 2 412 2 412 2 392 c 0,2,3
 2 314 2 314 30.5 242 c 128,-1,4
 59 170 59 170 110.5 114 c 128,-1,5
 162 58 162 58 231 23.5 c 128,-1,6
 300 -11 300 -11 379 -17 c 0,7,8
 389 -18 389 -18 410 -18 c 0,9,10
 488 -18 488 -18 560 10.5 c 128,-1,11
 632 39 632 39 688.5 90.5 c 128,-1,12
 745 142 745 142 779 211.5 c 128,-1,13
 813 281 813 281 819 360 c 0,14,15
 820 371 820 371 820 391 c 0,16,17
 820 469 820 469 791.5 541 c 128,-1,18
 763 613 763 613 711.5 669 c 128,-1,19
 660 725 660 725 591 759 c 128,-1,20
 522 793 522 793 443 799 c 0,21,22
 432 800 432 800 412 800 c 0,23,24
 334 800 334 800 262 771.5 c 128,-1,25
 190 743 190 743 134 691.5 c 128,-1,26
 78 640 78 640 43.5 571 c 128,-1,27
 9 502 9 502 3 423 c 0,0,1
530 421 m 1,28,29
 564 403 564 403 587 364 c 0,30,31
 607 327 607 327 607 288 c 0,32,33
 607 235 607 235 582 192 c 0,34,35
 558 149 558 149 510 123 c 0,36,37
 464 98 464 98 400 98 c 0,38,39
 350 98 350 98 314 112 c 0,40,41
 277 125 277 125 248 152 c 0,42,43
 222 177 222 177 205 213 c 0,44,45
 191 249 191 249 191 290 c 0,46,47
 191 328 191 328 211 363 c 0,48,49
 228 396 228 396 267 421 c 1,50,51
 217 465 217 465 214 533 c 0,52,53
 214 577 214 577 236 614 c 0,54,55
 256 649 256 649 300 673 c 0,56,57
 342 694 342 694 400 694 c 0,58,59
 456 694 456 694 498 673 c 0,60,61
 541 652 541 652 562 614 c 0,62,63
 584 579 584 579 584 533 c 0,64,65
 583 501 583 501 568 470 c 0,66,67
 555 441 555 441 530 421 c 1,28,29
400 467 m 0,68,69
 421 467 421 467 438 484 c 0,70,71
 454 502 454 502 454 524 c 0,72,73
 454 540 454 540 447 551 c 0,74,75
 439 564 439 564 426 571 c 0,76,77
 415 578 415 578 400 578 c 0,78,79
 376 578 376 578 360 562 c 0,80,81
 343 545 343 545 343 524 c 0,82,83
 343 501 343 501 360 484 c 0,84,85
 376 467 376 467 400 467 c 0,68,69
400 224 m 0,86,87
 430 224 430 224 451 245 c 0,88,89
 473 266 473 266 473 297 c 0,90,91
 473 318 473 318 463 335 c 256,92,93
 453 352 453 352 436 362 c 0,94,95
 418 372 418 372 400 372 c 0,96,97
 370 372 370 372 346 350 c 0,98,99
 325 329 325 329 325 297 c 0,100,101
 325 267 325 267 347 245 c 0,102,103
 368 224 368 224 400 224 c 0,86,87
EndSplineSet
EndChar
StartChar: nine
Encoding: 57 57 17
Width: 850
Flags: W
Fore
3 423 m 0,0,1
 2 412 2 412 2 392 c 0,2,3
 2 314 2 314 30.5 242 c 128,-1,4
 59 170 59 170 110.5 114 c 128,-1,5
 162 58 162 58 231 23.5 c 128,-1,6
 300 -11 300 -11 379 -17 c 0,7,8
 389 -18 389 -18 410 -18 c 0,9,10
 488 -18 488 -18 560 10.5 c 128,-1,11
 632 39 632 39 688.5 90.5 c 128,-1,12
 745 142 745 142 779 211.5 c 128,-1,13
 813 281 813 281 819 360 c 0,14,15
 820 371 820 371 820 391 c 0,16,17
 820 469 820 469 791.5 541 c 128,-1,18
 763 613 763 613 711.5 669 c 128,-1,19
 660 725 660 725 591 759 c 128,-1,20
 522 793 522 793 443 799 c 0,21,22
 432 800 432 800 412 800 c 0,23,24
 334 800 334 800 262 771.5 c 128,-1,25
 190 743 190 743 134 691.5 c 128,-1,26
 78 640 78 640 43.5 571 c 128,-1,27
 9 502 9 502 3 423 c 0,0,1
613 500 m 0,28,29
 613 467 613 467 604 429 c 0,30,31
 594 391 594 391 579 357 c 0,32,33
 565 326 565 326 539 288 c 0,34,35
 515 254 515 254 486 217 c 0,36,37
 458 184 458 184 435 157 c 0,38,39
 411 132 411 132 401 123 c 0,40,41
 379 102 379 102 353 102 c 0,42,43
 330 102 330 102 309 120 c 0,44,45
 290 138 290 138 287 160 c 1,46,47
 290 184 290 184 304 198 c 0,48,49
 313 209 313 209 336 235 c 2,50,-1
 348 248 l 2,51,52
 363 265 363 265 374 277 c 0,53,54
 384 288 384 288 387 292 c 0,55,56
 398 305 398 305 412 326 c 1,57,-1
 410 327 l 1,58,-1
 406 326 l 2,59,60
 375 321 375 321 362 320 c 0,61,62
 325 320 325 320 294 336 c 0,63,64
 265 350 265 350 243 379 c 256,65,66
 221 408 221 408 211 438 c 0,67,68
 200 467 200 467 200 502 c 0,69,70
 202 566 202 566 232 612 c 0,71,72
 264 655 264 655 309 675 c 0,73,74
 353 696 353 696 400 697 c 0,75,76
 445 697 445 697 482 685 c 0,77,78
 522 673 522 673 550 649 c 0,79,80
 581 624 581 624 596 587 c 0,81,82
 613 548 613 548 613 500 c 0,28,29
407 572 m 0,83,84
 378 572 378 572 355 551 c 0,85,86
 334 529 334 529 334 499 c 0,87,88
 334 471 334 471 355 448 c 0,89,90
 378 427 378 427 407 427 c 0,91,92
 426 427 426 427 443 437 c 0,93,94
 459 447 459 447 469 464 c 0,95,96
 479 478 479 478 479 499 c 0,97,98
 479 519 479 519 469 535 c 0,99,100
 459 552 459 552 443 562 c 256,101,102
 427 572 427 572 407 572 c 0,83,84
EndSplineSet
EndChar
StartChar: question
Encoding: 63 63 18
Width: 850
Flags: W
Fore
3 423 m 0,0,1
 2 412 2 412 2 392 c 0,2,3
 2 314 2 314 30.5 242 c 128,-1,4
 59 170 59 170 110.5 114 c 128,-1,5
 162 58 162 58 231 23.5 c 128,-1,6
 300 -11 300 -11 379 -17 c 0,7,8
 389 -18 389 -18 410 -18 c 0,9,10
 488 -18 488 -18 560 10.5 c 128,-1,11
 632 39 632 39 688.5 90.5 c 128,-1,12
 745 142 745 142 779 211.5 c 128,-1,13
 813 281 813 281 819 360 c 0,14,15
 820 371 820 371 820 391 c 0,16,17
 820 469 820 469 791.5 541 c 128,-1,18
 763 613 763 613 711.5 669 c 128,-1,19
 660 725 660 725 591 759 c 128,-1,20
 522 793 522 793 443 799 c 0,21,22
 432 800 432 800 412 800 c 0,23,24
 334 800 334 800 262 771.5 c 128,-1,25
 190 743 190 743 134 691.5 c 128,-1,26
 78 640 78 640 43.5 571 c 128,-1,27
 9 502 9 502 3 423 c 0,0,1
223 582 m 0,28,29
 226 598 226 598 242 624 c 0,30,31
 261 652 261 652 304 675 c 0,32,33
 355 698 355 698 399 698 c 0,34,35
 435 698 435 698 471 686 c 0,36,37
 509 673 509 673 536 652 c 0,38,39
 565 629 565 629 582 598 c 0,40,41
 599 566 599 566 599 528 c 0,42,43
 599 486 599 486 587 451 c 0,44,45
 577 417 577 417 545 391 c 0,46,47
 516 366 516 366 461 354 c 1,48,-1
 461 339 l 2,49,50
 461 308 461 308 442 292 c 0,51,52
 422 275 422 275 398 274 c 0,53,54
 372 276 372 276 354 292 c 0,55,56
 336 309 336 309 336 337 c 2,57,-1
 336 404 l 2,58,59
 336 444 336 444 379 451 c 0,60,61
 412 458 412 458 422 461 c 0,62,63
 438 466 438 466 448 478 c 0,64,65
 461 491 461 491 461 516 c 0,66,67
 461 538 461 538 441 553 c 0,68,69
 422 568 422 568 399 568 c 0,70,71
 381 568 381 568 366 559 c 0,72,73
 349 546 349 546 336 532 c 0,74,75
 315 511 315 511 307 505 c 0,76,77
 294 497 294 497 276 495 c 1,78,79
 251 498 251 498 236 514 c 0,80,81
 220 533 220 533 219 557 c 0,82,83
 219 562 219 562 222 578 c 0,84,85
 222 579 222 579 223 582 c 0,28,29
398 102 m 0,86,87
 370 102 370 102 350 122 c 0,88,89
 329 143 329 143 329 171 c 0,90,91
 329 200 329 200 349 221 c 0,92,93
 369 241 369 241 398 241 c 0,94,95
 428 241 428 241 447 221 c 0,96,97
 468 200 468 200 468 171 c 0,98,99
 468 143 468 143 447 122 c 0,100,101
 427 102 427 102 398 102 c 0,86,87
EndSplineSet
EndChar
StartChar: A
Encoding: 65 65 19
Width: 850
Flags: W
Fore
3 423 m 0,0,1
 2 412 2 412 2 392 c 0,2,3
 2 314 2 314 30.5 242 c 128,-1,4
 59 170 59 170 110.5 114 c 128,-1,5
 162 58 162 58 231 23.5 c 128,-1,6
 300 -11 300 -11 379 -17 c 0,7,8
 389 -18 389 -18 410 -18 c 0,9,10
 488 -18 488 -18 560 10.5 c 128,-1,11
 632 39 632 39 688.5 90.5 c 128,-1,12
 745 142 745 142 779 211.5 c 128,-1,13
 813 281 813 281 819 360 c 0,14,15
 820 371 820 371 820 391 c 0,16,17
 820 469 820 469 791.5 541 c 128,-1,18
 763 613 763 613 711.5 669 c 128,-1,19
 660 725 660 725 591 759 c 128,-1,20
 522 793 522 793 443 799 c 0,21,22
 432 800 432 800 412 800 c 0,23,24
 334 800 334 800 262 771.5 c 128,-1,25
 190 743 190 743 134 691.5 c 128,-1,26
 78 640 78 640 43.5 571 c 128,-1,27
 9 502 9 502 3 423 c 0,0,1
167 220 m 2,28,-1
 303 589 l 2,29,30
 334 685 334 685 402 685 c 0,31,32
 469 685 469 685 503 597 c 2,33,-1
 646 214 l 2,34,35
 657 176 657 176 657 156 c 0,36,37
 657 129 657 129 639 114 c 0,38,39
 623 99 623 99 594 99 c 0,40,41
 546 99 546 99 527 160 c 2,42,-1
 511 214 l 1,43,-1
 299 214 l 1,44,-1
 282 160 l 2,45,46
 273 131 273 131 256 115 c 0,47,48
 241 100 241 100 213 100 c 0,49,50
 152 100 152 100 152 155 c 0,51,52
 152 180 152 180 167 220 c 2,28,-1
336 334 m 1,53,-1
 472 334 l 1,54,-1
 407 542 l 1,55,-1
 405 542 l 1,56,-1
 336 334 l 1,53,-1
EndSplineSet
EndChar
StartChar: B
Encoding: 66 66 20
Width: 850
Flags: W
Fore
3 423 m 0,0,1
 2 412 2 412 2 392 c 0,2,3
 2 314 2 314 30.5 242 c 128,-1,4
 59 170 59 170 110.5 114 c 128,-1,5
 162 58 162 58 231 23.5 c 128,-1,6
 300 -11 300 -11 379 -17 c 0,7,8
 389 -18 389 -18 410 -18 c 0,9,10
 488 -18 488 -18 560 10.5 c 128,-1,11
 632 39 632 39 688.5 90.5 c 128,-1,12
 745 142 745 142 779 211.5 c 128,-1,13
 813 281 813 281 819 360 c 0,14,15
 820 371 820 371 820 391 c 0,16,17
 820 469 820 469 791.5 541 c 128,-1,18
 763 613 763 613 711.5 669 c 128,-1,19
 660 725 660 725 591 759 c 128,-1,20
 522 793 522 793 443 799 c 0,21,22
 432 800 432 800 412 800 c 0,23,24
 334 800 334 800 262 771.5 c 128,-1,25
 190 743 190 743 134 691.5 c 128,-1,26
 78 640 78 640 43.5 571 c 128,-1,27
 9 502 9 502 3 423 c 0,0,1
221 607 m 2,28,29
 221 636 221 636 238 653 c 0,30,31
 257 670 257 670 285 670 c 2,32,-1
 441 670 l 2,33,34
 484 670 484 670 520 652 c 0,35,36
 556 633 556 633 577 599 c 0,37,38
 598 566 598 566 598 523 c 0,39,40
 598 450 598 450 531 413 c 1,41,42
 566 407 566 407 592 386 c 0,43,44
 619 365 619 365 631 336 c 0,45,46
 643 308 643 308 645 270 c 0,47,48
 645 250 645 250 637 216 c 0,49,50
 626 182 626 182 603 156 c 0,51,52
 578 129 578 129 541 115 c 0,53,54
 502 100 502 100 449 100 c 2,55,-1
 285 100 l 2,56,57
 259 100 259 100 241 117 c 0,58,59
 223 133 223 133 221 165 c 2,60,-1
 221 607 l 2,28,29
351 447 m 1,61,-1
 408 447 l 2,62,63
 470 447 470 447 470 503 c 0,64,65
 467 554 467 554 410 555 c 2,66,-1
 351 555 l 1,67,-1
 351 447 l 1,61,-1
351 216 m 1,68,-1
 434 216 l 2,69,70
 510 216 510 216 510 275 c 0,71,72
 510 303 510 303 488 318 c 0,73,74
 467 333 467 333 429 333 c 2,75,-1
 351 333 l 1,76,-1
 351 216 l 1,68,-1
EndSplineSet
EndChar
StartChar: C
Encoding: 67 67 21
Width: 850
Flags: W
Fore
3 423 m 0,0,1
 2 412 2 412 2 392 c 0,2,3
 2 314 2 314 30.5 242 c 128,-1,4
 59 170 59 170 110.5 114 c 128,-1,5
 162 58 162 58 231 23.5 c 128,-1,6
 300 -11 300 -11 379 -17 c 0,7,8
 389 -18 389 -18 410 -18 c 0,9,10
 488 -18 488 -18 560 10.5 c 128,-1,11
 632 39 632 39 688.5 90.5 c 128,-1,12
 745 142 745 142 779 211.5 c 128,-1,13
 813 281 813 281 819 360 c 0,14,15
 820 371 820 371 820 391 c 0,16,17
 820 469 820 469 791.5 541 c 128,-1,18
 763 613 763 613 711.5 669 c 128,-1,19
 660 725 660 725 591 759 c 128,-1,20
 522 793 522 793 443 799 c 0,21,22
 432 800 432 800 412 800 c 0,23,24
 334 800 334 800 262 771.5 c 128,-1,25
 190 743 190 743 134 691.5 c 128,-1,26
 78 640 78 640 43.5 571 c 128,-1,27
 9 502 9 502 3 423 c 0,0,1
585 582 m 0,28,29
 570 548 570 548 534 545 c 1,30,31
 521 547 521 547 505 551 c 0,32,33
 499 553 499 553 484 558 c 2,34,-1
 475 561 l 2,35,36
 467 564 467 564 452 568 c 2,37,-1
 449 569 l 2,38,39
 438 573 438 573 423 573 c 0,40,41
 374 573 374 573 335 545 c 0,42,43
 297 516 297 516 284 468 c 0,44,45
 276 445 276 445 273 401 c 0,46,47
 275 333 275 333 307 284 c 0,48,49
 344 232 344 232 418 232 c 0,50,51
 464 232 464 232 496 248 c 0,52,53
 519 257 519 257 535 258 c 0,54,55
 560 258 560 258 578 241 c 0,56,57
 595 224 595 224 595 199 c 0,58,59
 595 154 595 154 548 131 c 0,60,61
 482 102 482 102 415 102 c 0,62,63
 347 102 347 102 292 128 c 0,64,65
 222 158 222 158 179 230 c 0,66,67
 135 301 135 301 135 402 c 0,68,69
 135 468 135 468 156 522 c 0,70,71
 175 575 175 575 214 616 c 0,72,73
 251 656 251 656 304 677 c 256,74,75
 357 698 357 698 418 698 c 0,76,77
 459 698 459 698 494 691 c 0,78,79
 533 683 533 683 560 662 c 0,80,81
 568 656 568 656 579.5 640 c 128,-1,82
 591 624 591 624 591 605 c 0,83,84
 591 594 591 594 585 582 c 0,28,29
EndSplineSet
EndChar
StartChar: D
Encoding: 68 68 22
Width: 850
Flags: W
Fore
3 423 m 0,0,1
 2 412 2 412 2 392 c 0,2,3
 2 314 2 314 30.5 242 c 128,-1,4
 59 170 59 170 110.5 114 c 128,-1,5
 162 58 162 58 231 23.5 c 128,-1,6
 300 -11 300 -11 379 -17 c 0,7,8
 389 -18 389 -18 410 -18 c 0,9,10
 488 -18 488 -18 560 10.5 c 128,-1,11
 632 39 632 39 688.5 90.5 c 128,-1,12
 745 142 745 142 779 211.5 c 128,-1,13
 813 281 813 281 819 360 c 0,14,15
 820 371 820 371 820 391 c 0,16,17
 820 469 820 469 791.5 541 c 128,-1,18
 763 613 763 613 711.5 669 c 128,-1,19
 660 725 660 725 591 759 c 128,-1,20
 522 793 522 793 443 799 c 0,21,22
 432 800 432 800 412 800 c 0,23,24
 334 800 334 800 262 771.5 c 128,-1,25
 190 743 190 743 134 691.5 c 128,-1,26
 78 640 78 640 43.5 571 c 128,-1,27
 9 502 9 502 3 423 c 0,0,1
203 603 m 2,28,29
 203 631 203 631 220 651 c 0,30,31
 238 670 238 670 267 670 c 2,32,-1
 419 670 l 2,33,34
 509 670 509 670 561 635 c 0,35,36
 613 602 613 602 646 550 c 0,37,38
 689 478 689 478 689 384 c 0,39,40
 689 328 689 328 670 278 c 0,41,42
 649 223 649 223 616 186 c 0,43,44
 581 147 581 147 534 123 c 0,45,46
 485 100 485 100 428 100 c 2,47,-1
 271 100 l 2,48,49
 242 100 242 100 222 118 c 0,50,51
 203 137 203 137 203 165 c 2,52,-1
 203 603 l 2,28,29
333 550 m 1,53,-1
 333 220 l 1,54,-1
 406 220 l 2,55,56
 472 220 472 220 513 266 c 0,57,58
 530 283 530 283 539 318 c 0,59,60
 547 344 547 344 549 389 c 0,61,62
 549 462 549 462 518 501 c 0,63,64
 476 550 476 550 410 550 c 2,65,-1
 333 550 l 1,53,-1
EndSplineSet
EndChar
StartChar: E
Encoding: 69 69 23
Width: 850
Flags: W
Fore
3 423 m 0,0,1
 2 412 2 412 2 392 c 0,2,3
 2 314 2 314 30.5 242 c 128,-1,4
 59 170 59 170 110.5 114 c 128,-1,5
 162 58 162 58 231 23.5 c 128,-1,6
 300 -11 300 -11 379 -17 c 0,7,8
 389 -18 389 -18 410 -18 c 0,9,10
 488 -18 488 -18 560 10.5 c 128,-1,11
 632 39 632 39 688.5 90.5 c 128,-1,12
 745 142 745 142 779 211.5 c 128,-1,13
 813 281 813 281 819 360 c 0,14,15
 820 371 820 371 820 391 c 0,16,17
 820 469 820 469 791.5 541 c 128,-1,18
 763 613 763 613 711.5 669 c 128,-1,19
 660 725 660 725 591 759 c 128,-1,20
 522 793 522 793 443 799 c 0,21,22
 432 800 432 800 412 800 c 0,23,24
 334 800 334 800 262 771.5 c 128,-1,25
 190 743 190 743 134 691.5 c 128,-1,26
 78 640 78 640 43.5 571 c 128,-1,27
 9 502 9 502 3 423 c 0,0,1
241 441 m 1,28,-1
 241 605 l 2,29,30
 241 637 241 637 261 654 c 0,31,32
 279 670 279 670 304 670 c 2,33,-1
 508 670 l 2,34,35
 537 670 537 670 553 654 c 0,36,37
 569 640 569 640 569 610 c 0,38,39
 569 585 569 585 555 568 c 0,40,41
 540 550 540 550 508 550 c 2,42,-1
 371 550 l 1,43,-1
 371 447 l 1,44,-1
 499 447 l 2,45,46
 527 447 527 447 544 430 c 0,47,48
 561 412 561 412 561 387 c 0,49,50
 561 363 561 363 543 345 c 0,51,52
 529 327 529 327 499 327 c 2,53,-1
 371 327 l 1,54,-1
 371 220 l 1,55,-1
 508 220 l 2,56,57
 541 220 541 220 558 203 c 0,58,59
 574 185 574 185 574 163 c 0,60,61
 574 135 574 135 558 117 c 0,62,63
 541 100 541 100 508 100 c 2,64,-1
 309 100 l 2,65,66
 277 100 277 100 259 119 c 0,67,68
 243 135 243 135 241 164 c 2,69,-1
 241 441 l 1,28,-1
EndSplineSet
EndChar
StartChar: F
Encoding: 70 70 24
Width: 850
Flags: W
Fore
3 423 m 0,0,1
 2 412 2 412 2 392 c 0,2,3
 2 314 2 314 30.5 242 c 128,-1,4
 59 170 59 170 110.5 114 c 128,-1,5
 162 58 162 58 231 23.5 c 128,-1,6
 300 -11 300 -11 379 -17 c 0,7,8
 389 -18 389 -18 410 -18 c 0,9,10
 488 -18 488 -18 560 10.5 c 128,-1,11
 632 39 632 39 688.5 90.5 c 128,-1,12
 745 142 745 142 779 211.5 c 128,-1,13
 813 281 813 281 819 360 c 0,14,15
 820 371 820 371 820 391 c 0,16,17
 820 469 820 469 791.5 541 c 128,-1,18
 763 613 763 613 711.5 669 c 128,-1,19
 660 725 660 725 591 759 c 128,-1,20
 522 793 522 793 443 799 c 0,21,22
 432 800 432 800 412 800 c 0,23,24
 334 800 334 800 262 771.5 c 128,-1,25
 190 743 190 743 134 691.5 c 128,-1,26
 78 640 78 640 43.5 571 c 128,-1,27
 9 502 9 502 3 423 c 0,0,1
255 443 m 1,28,-1
 255 607 l 2,29,30
 255 639 255 639 275 656 c 0,31,32
 293 672 293 672 318 672 c 2,33,-1
 518 672 l 2,34,35
 546 672 546 672 564 657 c 0,36,37
 583 641 583 641 583 612 c 0,38,39
 583 587 583 587 568 570 c 0,40,41
 552 552 552 552 521 552 c 2,42,-1
 385 552 l 1,43,-1
 385 451 l 1,44,-1
 507 451 l 2,45,46
 526 451 526 451 539 442 c 0,47,48
 553 434 553 434 559 419 c 0,49,50
 567 405 567 405 567 389 c 0,51,52
 567 366 567 366 551 348 c 256,53,54
 535 330 535 330 507 330 c 2,55,-1
 385 330 l 1,56,-1
 385 163 l 2,57,58
 385 139 385 139 370 118 c 256,59,60
 355 97 355 97 319 97 c 0,61,62
 255 97 255 97 255 166 c 2,63,-1
 255 443 l 1,28,-1
EndSplineSet
EndChar
StartChar: G
Encoding: 71 71 25
Width: 850
Flags: W
Fore
3 423 m 0,0,1
 2 412 2 412 2 392 c 0,2,3
 2 314 2 314 30.5 242 c 128,-1,4
 59 170 59 170 110.5 114 c 128,-1,5
 162 58 162 58 231 23.5 c 128,-1,6
 300 -11 300 -11 379 -17 c 0,7,8
 389 -18 389 -18 410 -18 c 0,9,10
 488 -18 488 -18 560 10.5 c 128,-1,11
 632 39 632 39 688.5 90.5 c 128,-1,12
 745 142 745 142 779 211.5 c 128,-1,13
 813 281 813 281 819 360 c 0,14,15
 820 371 820 371 820 391 c 0,16,17
 820 469 820 469 791.5 541 c 128,-1,18
 763 613 763 613 711.5 669 c 128,-1,19
 660 725 660 725 591 759 c 128,-1,20
 522 793 522 793 443 799 c 0,21,22
 432 800 432 800 412 800 c 0,23,24
 334 800 334 800 262 771.5 c 128,-1,25
 190 743 190 743 134 691.5 c 128,-1,26
 78 640 78 640 43.5 571 c 128,-1,27
 9 502 9 502 3 423 c 0,0,1
129 402 m 0,28,29
 129 474 129 474 155 532 c 0,30,31
 183 592 183 592 226 631 c 0,32,33
 303 698 303 698 410 698 c 0,34,35
 448 698 448 698 485 692 c 0,36,37
 518 687 518 687 555 670 c 0,38,39
 588 655 588 655 607 630 c 0,40,41
 629 605 629 605 629 573 c 0,42,43
 629 550 629 550 613 535 c 0,44,45
 597 521 597 521 573 518 c 1,46,47
 553 522 553 522 545 526 c 0,48,49
 536 531 536 531 514 544 c 0,50,51
 506 550 506 550 496 555 c 0,52,53
 490 559 490 559 487 561 c 0,54,55
 458 577 458 577 414 577 c 0,56,57
 381 577 381 577 354 563 c 0,58,59
 328 550 328 550 306 525 c 0,60,61
 287 500 287 500 278 468 c 0,62,63
 271 449 271 449 268 401 c 0,64,65
 269 357 269 357 285 315 c 0,66,67
 300 273 300 273 332 249 c 0,68,69
 364 223 364 223 412 223 c 0,70,71
 454 223 454 223 481 241 c 0,72,73
 507 258 507 258 519 284 c 0,74,75
 531 308 531 308 534 332 c 1,76,-1
 458 332 l 2,77,78
 428 332 428 332 410 350 c 0,79,80
 394 368 394 368 392 393 c 1,81,82
 394 419 394 419 410 435 c 256,83,84
 426 451 426 451 456 453 c 2,85,-1
 599 453 l 2,86,87
 640 453 640 453 654 430 c 256,88,89
 668 407 668 407 668 381 c 0,90,91
 668 285 668 285 625 215 c 0,92,93
 596 166 596 166 535 133 c 0,94,95
 477 102 477 102 406 102 c 0,96,97
 346 102 346 102 286 128 c 0,98,99
 219 157 219 157 173 229 c 0,100,101
 129 302 129 302 129 402 c 0,28,29
EndSplineSet
EndChar
StartChar: H
Encoding: 72 72 26
Width: 850
Flags: W
Fore
3 423 m 0,0,1
 2 412 2 412 2 392 c 0,2,3
 2 314 2 314 30.5 242 c 128,-1,4
 59 170 59 170 110.5 114 c 128,-1,5
 162 58 162 58 231 23.5 c 128,-1,6
 300 -11 300 -11 379 -17 c 0,7,8
 389 -18 389 -18 410 -18 c 0,9,10
 488 -18 488 -18 560 10.5 c 128,-1,11
 632 39 632 39 688.5 90.5 c 128,-1,12
 745 142 745 142 779 211.5 c 128,-1,13
 813 281 813 281 819 360 c 0,14,15
 820 371 820 371 820 391 c 0,16,17
 820 469 820 469 791.5 541 c 128,-1,18
 763 613 763 613 711.5 669 c 128,-1,19
 660 725 660 725 591 759 c 128,-1,20
 522 793 522 793 443 799 c 0,21,22
 432 800 432 800 412 800 c 0,23,24
 334 800 334 800 262 771.5 c 128,-1,25
 190 743 190 743 134 691.5 c 128,-1,26
 78 640 78 640 43.5 571 c 128,-1,27
 9 502 9 502 3 423 c 0,0,1
155 607 m 2,28,29
 155 641 155 641 174 658 c 256,30,31
 193 675 193 675 221 675 c 256,32,33
 249 675 249 675 267 658 c 0,34,35
 285 640 285 640 285 607 c 2,36,-1
 285 451 l 1,37,-1
 527 451 l 1,38,-1
 527 607 l 2,39,40
 527 641 527 641 545 659 c 0,41,42
 564 675 564 675 591 675 c 0,43,44
 621 675 621 675 639 658 c 0,45,46
 657 642 657 642 657 605 c 2,47,-1
 657 163 l 2,48,49
 657 132 657 132 640 113 c 0,50,51
 622 95 622 95 590 95 c 0,52,53
 559 95 559 95 543 115 c 0,54,55
 527 136 527 136 527 163 c 2,56,-1
 527 333 l 1,57,-1
 285 333 l 1,58,-1
 285 165 l 2,59,60
 285 137 285 137 270 117 c 256,61,62
 255 97 255 97 223 95 c 0,63,64
 189 95 189 95 172 115 c 0,65,66
 157 132 157 132 155 164 c 2,67,-1
 155 607 l 2,28,29
EndSplineSet
EndChar
StartChar: I
Encoding: 73 73 27
Width: 850
Flags: W
Fore
3 423 m 0,0,1
 2 412 2 412 2 392 c 0,2,3
 2 314 2 314 30.5 242 c 128,-1,4
 59 170 59 170 110.5 114 c 128,-1,5
 162 58 162 58 231 23.5 c 128,-1,6
 300 -11 300 -11 379 -17 c 0,7,8
 389 -18 389 -18 410 -18 c 0,9,10
 488 -18 488 -18 560 10.5 c 128,-1,11
 632 39 632 39 688.5 90.5 c 128,-1,12
 745 142 745 142 779 211.5 c 128,-1,13
 813 281 813 281 819 360 c 0,14,15
 820 371 820 371 820 391 c 0,16,17
 820 469 820 469 791.5 541 c 128,-1,18
 763 613 763 613 711.5 669 c 128,-1,19
 660 725 660 725 591 759 c 128,-1,20
 522 793 522 793 443 799 c 0,21,22
 432 800 432 800 412 800 c 0,23,24
 334 800 334 800 262 771.5 c 128,-1,25
 190 743 190 743 134 691.5 c 128,-1,26
 78 640 78 640 43.5 571 c 128,-1,27
 9 502 9 502 3 423 c 0,0,1
335 607 m 2,28,29
 335 641 335 641 354 658 c 256,30,31
 373 675 373 675 401 675 c 256,32,33
 429 675 429 675 447 658 c 0,34,35
 465 640 465 640 465 607 c 2,36,-1
 465 165 l 2,37,38
 465 137 465 137 450 117 c 256,39,40
 435 97 435 97 403 95 c 0,41,42
 369 95 369 95 352 115 c 0,43,44
 337 132 337 132 335 164 c 2,45,-1
 335 607 l 2,28,29
EndSplineSet
EndChar
StartChar: J
Encoding: 74 74 28
Width: 850
Flags: W
Fore
3 423 m 0,0,1
 2 412 2 412 2 392 c 0,2,3
 2 314 2 314 30.5 242 c 128,-1,4
 59 170 59 170 110.5 114 c 128,-1,5
 162 58 162 58 231 23.5 c 128,-1,6
 300 -11 300 -11 379 -17 c 0,7,8
 389 -18 389 -18 410 -18 c 0,9,10
 488 -18 488 -18 560 10.5 c 128,-1,11
 632 39 632 39 688.5 90.5 c 128,-1,12
 745 142 745 142 779 211.5 c 128,-1,13
 813 281 813 281 819 360 c 0,14,15
 820 371 820 371 820 391 c 0,16,17
 820 469 820 469 791.5 541 c 128,-1,18
 763 613 763 613 711.5 669 c 128,-1,19
 660 725 660 725 591 759 c 128,-1,20
 522 793 522 793 443 799 c 0,21,22
 432 800 432 800 412 800 c 0,23,24
 334 800 334 800 262 771.5 c 128,-1,25
 190 743 190 743 134 691.5 c 128,-1,26
 78 640 78 640 43.5 571 c 128,-1,27
 9 502 9 502 3 423 c 0,0,1
406 303 m 2,28,-1
 406 621 l 2,29,30
 406 639 406 639 414 655 c 0,31,32
 422 670 422 670 437 678 c 0,33,34
 450 686 450 686 472 686 c 0,35,36
 500 686 500 686 518 669 c 0,37,38
 536 651 536 651 536 621 c 2,39,-1
 536 281 l 2,40,41
 536 215 536 215 517 178 c 0,42,43
 475 98 475 98 364 98 c 0,44,45
 312 98 312 98 266 121 c 0,46,47
 221 143 221 143 219 193 c 0,48,49
 219 209 219 209 227 223 c 0,50,51
 233 235 233 235 247 245 c 0,52,53
 258 252 258 252 277 254 c 0,54,55
 289 254 289 254 298 250 c 0,56,57
 303 248 303 248 315 241 c 0,58,59
 317 240 317 240 320 238 c 0,60,61
 324 236 324 236 332 232 c 0,62,63
 338 228 338 228 341 227 c 0,64,65
 347 224 347 224 360 222 c 1,66,67
 371 225 371 225 375 225 c 0,68,69
 406 231 406 231 406 303 c 2,28,-1
EndSplineSet
EndChar
StartChar: K
Encoding: 75 75 29
Width: 850
Flags: W
Fore
3 423 m 0,0,1
 2 412 2 412 2 392 c 0,2,3
 2 314 2 314 30.5 242 c 128,-1,4
 59 170 59 170 110.5 114 c 128,-1,5
 162 58 162 58 231 23.5 c 128,-1,6
 300 -11 300 -11 379 -17 c 0,7,8
 389 -18 389 -18 410 -18 c 0,9,10
 488 -18 488 -18 560 10.5 c 128,-1,11
 632 39 632 39 688.5 90.5 c 128,-1,12
 745 142 745 142 779 211.5 c 128,-1,13
 813 281 813 281 819 360 c 0,14,15
 820 371 820 371 820 391 c 0,16,17
 820 469 820 469 791.5 541 c 128,-1,18
 763 613 763 613 711.5 669 c 128,-1,19
 660 725 660 725 591 759 c 128,-1,20
 522 793 522 793 443 799 c 0,21,22
 432 800 432 800 412 800 c 0,23,24
 334 800 334 800 262 771.5 c 128,-1,25
 190 743 190 743 134 691.5 c 128,-1,26
 78 640 78 640 43.5 571 c 128,-1,27
 9 502 9 502 3 423 c 0,0,1
183 608 m 2,28,29
 183 639 183 639 202 658 c 0,30,31
 222 675 222 675 249 675 c 0,32,33
 313 672 313 672 313 605 c 2,34,-1
 313 449 l 1,35,-1
 496 647 l 2,36,37
 521 675 521 675 553 675 c 0,38,39
 579 675 579 675 598 654 c 0,40,41
 618 636 618 636 618 611 c 0,42,43
 615 583 615 583 591 561 c 2,44,-1
 438 405 l 1,45,-1
 619 208 l 2,46,47
 638 187 638 187 641 167 c 1,48,49
 641 133 641 133 622 114 c 0,50,51
 605 95 605 95 574 95 c 0,52,53
 542 95 542 95 510 131 c 2,54,-1
 313 351 l 1,55,-1
 313 164 l 2,56,57
 313 128 313 128 293 111 c 0,58,59
 271 95 271 95 243 95 c 0,60,61
 215 97 215 97 199 114 c 0,62,63
 185 131 185 131 183 163 c 2,64,-1
 183 608 l 2,28,29
EndSplineSet
EndChar
StartChar: L
Encoding: 76 76 30
Width: 850
Flags: W
Fore
3 423 m 0,0,1
 2 412 2 412 2 392 c 0,2,3
 2 314 2 314 30.5 242 c 128,-1,4
 59 170 59 170 110.5 114 c 128,-1,5
 162 58 162 58 231 23.5 c 128,-1,6
 300 -11 300 -11 379 -17 c 0,7,8
 389 -18 389 -18 410 -18 c 0,9,10
 488 -18 488 -18 560 10.5 c 128,-1,11
 632 39 632 39 688.5 90.5 c 128,-1,12
 745 142 745 142 779 211.5 c 128,-1,13
 813 281 813 281 819 360 c 0,14,15
 820 371 820 371 820 391 c 0,16,17
 820 469 820 469 791.5 541 c 128,-1,18
 763 613 763 613 711.5 669 c 128,-1,19
 660 725 660 725 591 759 c 128,-1,20
 522 793 522 793 443 799 c 0,21,22
 432 800 432 800 412 800 c 0,23,24
 334 800 334 800 262 771.5 c 128,-1,25
 190 743 190 743 134 691.5 c 128,-1,26
 78 640 78 640 43.5 571 c 128,-1,27
 9 502 9 502 3 423 c 0,0,1
263 605 m 2,28,29
 263 640 263 640 283 657 c 0,30,31
 302 673 302 673 331 673 c 0,32,33
 393 670 393 670 393 601 c 2,34,-1
 393 218 l 1,35,-1
 535 218 l 2,36,37
 564 218 564 218 581 201 c 0,38,39
 598 183 598 183 598 154 c 0,40,41
 595 126 595 126 578 113 c 0,42,43
 560 98 560 98 537 98 c 2,44,-1
 329 98 l 2,45,46
 299 98 299 98 281 117 c 0,47,48
 265 135 265 135 263 159 c 2,49,-1
 263 605 l 2,28,29
EndSplineSet
EndChar
StartChar: M
Encoding: 77 77 31
Width: 850
Flags: W
Fore
3 423 m 0,0,1
 2 412 2 412 2 392 c 0,2,3
 2 314 2 314 30.5 242 c 128,-1,4
 59 170 59 170 110.5 114 c 128,-1,5
 162 58 162 58 231 23.5 c 128,-1,6
 300 -11 300 -11 379 -17 c 0,7,8
 389 -18 389 -18 410 -18 c 0,9,10
 488 -18 488 -18 560 10.5 c 128,-1,11
 632 39 632 39 688.5 90.5 c 128,-1,12
 745 142 745 142 779 211.5 c 128,-1,13
 813 281 813 281 819 360 c 0,14,15
 820 371 820 371 820 391 c 0,16,17
 820 469 820 469 791.5 541 c 128,-1,18
 763 613 763 613 711.5 669 c 128,-1,19
 660 725 660 725 591 759 c 128,-1,20
 522 793 522 793 443 799 c 0,21,22
 432 800 432 800 412 800 c 0,23,24
 334 800 334 800 262 771.5 c 128,-1,25
 190 743 190 743 134 691.5 c 128,-1,26
 78 640 78 640 43.5 571 c 128,-1,27
 9 502 9 502 3 423 c 0,0,1
207 577 m 2,28,29
 212 607 212 607 216 621 c 0,30,31
 221 638 221 638 228 648 c 0,32,33
 241 673 241 673 276 673 c 0,34,35
 308 673 308 673 323 645 c 0,36,37
 337 618 337 618 351 560 c 2,38,-1
 406 337 l 1,39,-1
 407 337 l 1,40,-1
 466 581 l 2,41,42
 479 627 479 627 494 649 c 0,43,44
 509 673 509 673 538 673 c 0,45,46
 563 673 563 673 581 652 c 0,47,48
 598 631 598 631 604 595 c 2,49,-1
 656 203 l 1,50,-1
 656 199 l 2,51,52
 657 190 657 190 657 181 c 2,53,54
 659 169 659 169 659 156 c 0,55,56
 659 130 659 130 645 111 c 0,57,58
 632 93 632 93 609 93 c 0,59,60
 588 93 588 93 575 112 c 0,61,62
 562 129 562 129 559 161 c 2,63,-1
 527 432 l 1,64,-1
 526 432 l 1,65,-1
 459 149 l 2,66,67
 453 123 453 123 443 109 c 0,68,69
 431 95 431 95 409 93 c 0,70,71
 386 93 386 93 372 107 c 0,72,73
 360 121 360 121 354 149 c 2,74,-1
 287 432 l 1,75,-1
 285 432 l 1,76,-1
 257 180 l 2,77,78
 248 93 248 93 202 93 c 0,79,80
 181 93 181 93 169 110 c 0,81,82
 156 127 156 127 154 153 c 0,83,84
 154 158 154 158 155 164 c 2,85,86
 155 172 155 172 157 186 c 0,87,88
 158 191 158 191 158 197 c 0,89,90
 159 206 159 206 159 208 c 2,91,-1
 207 577 l 2,28,29
EndSplineSet
EndChar
StartChar: N
Encoding: 78 78 32
Width: 850
Flags: W
Fore
3 423 m 0,0,1
 2 412 2 412 2 392 c 0,2,3
 2 314 2 314 30.5 242 c 128,-1,4
 59 170 59 170 110.5 114 c 128,-1,5
 162 58 162 58 231 23.5 c 128,-1,6
 300 -11 300 -11 379 -17 c 0,7,8
 389 -18 389 -18 410 -18 c 0,9,10
 488 -18 488 -18 560 10.5 c 128,-1,11
 632 39 632 39 688.5 90.5 c 128,-1,12
 745 142 745 142 779 211.5 c 128,-1,13
 813 281 813 281 819 360 c 0,14,15
 820 371 820 371 820 391 c 0,16,17
 820 469 820 469 791.5 541 c 128,-1,18
 763 613 763 613 711.5 669 c 128,-1,19
 660 725 660 725 591 759 c 128,-1,20
 522 793 522 793 443 799 c 0,21,22
 432 800 432 800 412 800 c 0,23,24
 334 800 334 800 262 771.5 c 128,-1,25
 190 743 190 743 134 691.5 c 128,-1,26
 78 640 78 640 43.5 571 c 128,-1,27
 9 502 9 502 3 423 c 0,0,1
527 322 m 1,28,-1
 527 606 l 2,29,30
 527 632 527 632 543 654 c 0,31,32
 559 673 559 673 590 673 c 0,33,34
 622 673 622 673 640 655 c 0,35,36
 657 635 657 635 657 606 c 2,37,-1
 657 165 l 2,38,39
 657 134 657 134 639 114 c 0,40,41
 621 93 621 93 591 93 c 0,42,43
 569 93 569 93 555 104 c 0,44,45
 544 112 544 112 525 134 c 2,46,-1
 285 434 l 1,47,-1
 285 159 l 2,48,49
 285 127 285 127 266 111 c 0,50,51
 247 93 247 93 215 93 c 0,52,53
 188 94 188 94 171 114 c 0,54,55
 157 131 157 131 155 162 c 2,56,-1
 155 605 l 2,57,58
 155 633 155 633 172 653 c 0,59,60
 190 671 190 671 218 672 c 0,61,62
 238 672 238 672 252 662 c 0,63,64
 265 655 265 655 285 634 c 2,65,-1
 527 322 l 1,28,-1
EndSplineSet
EndChar
StartChar: O
Encoding: 79 79 33
Width: 850
Flags: W
Fore
3 423 m 0,0,1
 2 412 2 412 2 392 c 0,2,3
 2 314 2 314 30.5 242 c 128,-1,4
 59 170 59 170 110.5 114 c 128,-1,5
 162 58 162 58 231 23.5 c 128,-1,6
 300 -11 300 -11 379 -17 c 0,7,8
 389 -18 389 -18 410 -18 c 0,9,10
 488 -18 488 -18 560 10.5 c 128,-1,11
 632 39 632 39 688.5 90.5 c 128,-1,12
 745 142 745 142 779 211.5 c 128,-1,13
 813 281 813 281 819 360 c 0,14,15
 820 371 820 371 820 391 c 0,16,17
 820 469 820 469 791.5 541 c 128,-1,18
 763 613 763 613 711.5 669 c 128,-1,19
 660 725 660 725 591 759 c 128,-1,20
 522 793 522 793 443 799 c 0,21,22
 432 800 432 800 412 800 c 0,23,24
 334 800 334 800 262 771.5 c 128,-1,25
 190 743 190 743 134 691.5 c 128,-1,26
 78 640 78 640 43.5 571 c 128,-1,27
 9 502 9 502 3 423 c 0,0,1
407 698 m 0,28,29
 470 698 470 698 522 677 c 0,30,31
 575 655 575 655 610 617 c 0,32,33
 648 576 648 576 667 522 c 0,34,35
 687 465 687 465 687 399 c 256,36,37
 687 333 687 333 667 278 c 0,38,39
 648 224 648 224 610 183 c 0,40,41
 574 144 574 144 521 123 c 0,42,43
 470 102 470 102 407 102 c 256,44,45
 344 102 344 102 293 123 c 0,46,47
 240 144 240 144 203 184 c 256,48,49
 166 224 166 224 147 278 c 0,50,51
 127 331 127 331 127 399 c 0,52,53
 127 469 127 469 147 522 c 0,54,55
 167 578 167 578 203 616 c 0,56,57
 240 656 240 656 292 677 c 0,58,59
 343 698 343 698 407 698 c 0,28,29
407 577 m 0,60,61
 360 577 360 577 328 553 c 0,62,63
 297 529 297 529 281 488 c 0,64,65
 266 448 266 448 266 399 c 0,66,67
 266 326 266 326 301 274 c 0,68,69
 337 223 337 223 407 223 c 0,70,71
 455 223 455 223 486 247 c 0,72,73
 519 274 519 274 533 312 c 0,74,75
 548 353 548 353 548 399 c 0,76,77
 548 448 548 448 533 488 c 0,78,79
 518 527 518 527 486 553 c 0,80,81
 455 577 455 577 407 577 c 0,60,61
EndSplineSet
EndChar
StartChar: P
Encoding: 80 80 34
Width: 850
Flags: W
Fore
3 423 m 0,0,1
 2 412 2 412 2 392 c 0,2,3
 2 314 2 314 30.5 242 c 128,-1,4
 59 170 59 170 110.5 114 c 128,-1,5
 162 58 162 58 231 23.5 c 128,-1,6
 300 -11 300 -11 379 -17 c 0,7,8
 389 -18 389 -18 410 -18 c 0,9,10
 488 -18 488 -18 560 10.5 c 128,-1,11
 632 39 632 39 688.5 90.5 c 128,-1,12
 745 142 745 142 779 211.5 c 128,-1,13
 813 281 813 281 819 360 c 0,14,15
 820 371 820 371 820 391 c 0,16,17
 820 469 820 469 791.5 541 c 128,-1,18
 763 613 763 613 711.5 669 c 128,-1,19
 660 725 660 725 591 759 c 128,-1,20
 522 793 522 793 443 799 c 0,21,22
 432 800 432 800 412 800 c 0,23,24
 334 800 334 800 262 771.5 c 128,-1,25
 190 743 190 743 134 691.5 c 128,-1,26
 78 640 78 640 43.5 571 c 128,-1,27
 9 502 9 502 3 423 c 0,0,1
227 607 m 2,28,29
 227 630 227 630 244 650 c 0,30,31
 263 670 263 670 295 670 c 2,32,-1
 443 670 l 2,33,34
 510 670 510 670 555 644 c 0,35,36
 602 617 602 617 624 573 c 0,37,38
 647 527 647 527 647 474 c 0,39,40
 646 418 646 418 624 376 c 0,41,42
 604 334 604 334 561 308 c 0,43,44
 520 283 520 283 463 283 c 2,45,-1
 357 283 l 1,46,-1
 357 164 l 2,47,48
 357 129 357 129 338 113 c 0,49,50
 319 95 319 95 290 95 c 0,51,52
 229 98 229 98 227 165 c 2,53,-1
 227 607 l 2,28,29
357 555 m 1,54,-1
 357 398 l 1,55,-1
 432 398 l 2,56,57
 463 398 463 398 488 420 c 0,58,59
 512 441 512 441 512 475 c 0,60,61
 512 511 512 511 490 533 c 256,62,63
 468 555 468 555 427 555 c 2,64,-1
 357 555 l 1,54,-1
EndSplineSet
EndChar
StartChar: Q
Encoding: 81 81 35
Width: 850
Flags: W
Fore
3 423 m 0,0,1
 2 412 2 412 2 392 c 0,2,3
 2 314 2 314 30.5 242 c 128,-1,4
 59 170 59 170 110.5 114 c 128,-1,5
 162 58 162 58 231 23.5 c 128,-1,6
 300 -11 300 -11 379 -17 c 0,7,8
 389 -18 389 -18 410 -18 c 0,9,10
 488 -18 488 -18 560 10.5 c 128,-1,11
 632 39 632 39 688.5 90.5 c 128,-1,12
 745 142 745 142 779 211.5 c 128,-1,13
 813 281 813 281 819 360 c 0,14,15
 820 371 820 371 820 391 c 0,16,17
 820 469 820 469 791.5 541 c 128,-1,18
 763 613 763 613 711.5 669 c 128,-1,19
 660 725 660 725 591 759 c 128,-1,20
 522 793 522 793 443 799 c 0,21,22
 432 800 432 800 412 800 c 0,23,24
 334 800 334 800 262 771.5 c 128,-1,25
 190 743 190 743 134 691.5 c 128,-1,26
 78 640 78 640 43.5 571 c 128,-1,27
 9 502 9 502 3 423 c 0,0,1
512 138 m 1,28,29
 459 103 459 103 389 103 c 0,30,31
 336 103 336 103 292 124 c 256,32,33
 248 145 248 145 215 185 c 0,34,35
 184 225 184 225 168 279 c 0,36,37
 151 331 151 331 151 400 c 0,38,39
 151 471 151 471 168 523 c 0,40,41
 185 579 185 579 215 617 c 0,42,43
 249 658 249 658 291 678 c 0,44,45
 335 699 335 699 389 699 c 0,46,47
 444 699 444 699 487 678 c 0,48,49
 532 656 532 656 563 618 c 0,50,51
 595 576 595 576 611 523 c 0,52,53
 628 466 628 466 628 400 c 0,54,55
 628 292 628 292 585 218 c 1,56,-1
 614 189 l 2,57,58
 630 171 630 171 637 160 c 0,59,60
 647 146 647 146 647 127 c 0,61,62
 647 103 647 103 633 87 c 0,63,64
 622 72 622 72 602 70 c 0,65,66
 586 70 586 70 570 81 c 1,67,-1
 569 81 l 1,68,69
 548 98 548 98 534 114 c 0,70,71
 521 128 521 128 515 135 c 0,72,73
 513 137 513 137 512 138 c 1,28,29
389 578 m 0,74,75
 349 578 349 578 322 554 c 0,76,77
 294 529 294 529 282 489 c 0,78,79
 269 450 269 450 269 400 c 0,80,81
 269 316 269 316 305 266 c 0,82,83
 335 225 335 225 388 222 c 1,84,85
 414 225 414 225 423 229 c 1,86,87
 404 248 404 248 394 264 c 1,88,89
 387 272 387 272 387 293 c 0,90,91
 387 317 387 317 400 333 c 0,92,93
 412 349 412 349 432 349 c 0,94,95
 450 347 450 347 461 339 c 0,96,97
 472 332 472 332 496 308 c 1,98,99
 510 350 510 350 510 400 c 0,100,101
 510 445 510 445 497 489 c 0,102,103
 483 529 483 529 457 554 c 0,104,105
 430 578 430 578 389 578 c 0,74,75
EndSplineSet
EndChar
StartChar: R
Encoding: 82 82 36
Width: 850
Flags: W
Fore
3 423 m 0,0,1
 2 412 2 412 2 392 c 0,2,3
 2 314 2 314 30.5 242 c 128,-1,4
 59 170 59 170 110.5 114 c 128,-1,5
 162 58 162 58 231 23.5 c 128,-1,6
 300 -11 300 -11 379 -17 c 0,7,8
 389 -18 389 -18 410 -18 c 0,9,10
 488 -18 488 -18 560 10.5 c 128,-1,11
 632 39 632 39 688.5 90.5 c 128,-1,12
 745 142 745 142 779 211.5 c 128,-1,13
 813 281 813 281 819 360 c 0,14,15
 820 371 820 371 820 391 c 0,16,17
 820 469 820 469 791.5 541 c 128,-1,18
 763 613 763 613 711.5 669 c 128,-1,19
 660 725 660 725 591 759 c 128,-1,20
 522 793 522 793 443 799 c 0,21,22
 432 800 432 800 412 800 c 0,23,24
 334 800 334 800 262 771.5 c 128,-1,25
 190 743 190 743 134 691.5 c 128,-1,26
 78 640 78 640 43.5 571 c 128,-1,27
 9 502 9 502 3 423 c 0,0,1
207 605 m 2,28,29
 207 628 207 628 224 648 c 0,30,31
 243 668 243 668 275 668 c 2,32,-1
 426 668 l 2,33,34
 490 668 490 668 530 645 c 0,35,36
 573 623 573 623 596 580 c 0,37,38
 618 539 618 539 618 482 c 0,39,40
 617 432 617 432 593 400 c 0,41,42
 573 369 573 369 541 351 c 0,43,44
 512 336 512 336 486 331 c 1,45,-1
 603 206 l 2,46,47
 625 182 625 182 625 154 c 256,48,49
 625 126 625 126 603 110 c 0,50,51
 581 93 581 93 550 93 c 0,52,53
 522 96 522 96 499 123 c 2,54,-1
 339 326 l 1,55,-1
 337 326 l 1,56,-1
 337 162 l 2,57,58
 337 127 337 127 318 111 c 0,59,60
 299 93 299 93 270 93 c 0,61,62
 209 96 209 96 207 163 c 2,63,-1
 207 605 l 2,28,29
337 548 m 1,64,-1
 337 421 l 1,65,-1
 419 421 l 2,66,67
 447 421 447 421 468 439 c 0,68,69
 489 456 489 456 489 484 c 0,70,71
 489 511 489 511 470 530 c 0,72,73
 451 548 451 548 423 548 c 2,74,-1
 337 548 l 1,64,-1
EndSplineSet
EndChar
StartChar: S
Encoding: 83 83 37
Width: 850
Flags: W
Fore
3 423 m 0,0,1
 2 412 2 412 2 392 c 0,2,3
 2 314 2 314 30.5 242 c 128,-1,4
 59 170 59 170 110.5 114 c 128,-1,5
 162 58 162 58 231 23.5 c 128,-1,6
 300 -11 300 -11 379 -17 c 0,7,8
 389 -18 389 -18 410 -18 c 0,9,10
 488 -18 488 -18 560 10.5 c 128,-1,11
 632 39 632 39 688.5 90.5 c 128,-1,12
 745 142 745 142 779 211.5 c 128,-1,13
 813 281 813 281 819 360 c 0,14,15
 820 371 820 371 820 391 c 0,16,17
 820 469 820 469 791.5 541 c 128,-1,18
 763 613 763 613 711.5 669 c 128,-1,19
 660 725 660 725 591 759 c 128,-1,20
 522 793 522 793 443 799 c 0,21,22
 432 800 432 800 412 800 c 0,23,24
 334 800 334 800 262 771.5 c 128,-1,25
 190 743 190 743 134 691.5 c 128,-1,26
 78 640 78 640 43.5 571 c 128,-1,27
 9 502 9 502 3 423 c 0,0,1
207 521 m 0,28,29
 210 637 210 637 322 680 c 0,30,31
 363 694 363 694 416 694 c 0,32,33
 451 694 451 694 484 686 c 0,34,35
 520 678 520 678 546 658 c 0,36,37
 572 639 572 639 572 606 c 0,38,39
 572 580 572 580 556 564 c 0,40,41
 539 549 539 549 512 547 c 1,42,43
 509 548 509 548 508 548 c 0,44,45
 483 553 483 553 462 559 c 0,46,47
 424 569 424 569 406 569 c 0,48,49
 384 569 384 569 365 558 c 0,50,51
 348 548 348 548 345 527 c 1,52,53
 345 507 345 507 357 498 c 0,54,55
 370 488 370 488 405 477 c 0,56,57
 421 472 421 472 435 467 c 0,58,59
 462 458 462 458 473 454 c 0,60,61
 511 441 511 441 537 424 c 0,62,63
 567 405 567 405 586 373 c 0,64,65
 606 340 606 340 607 290 c 0,66,67
 607 216 607 216 566 167 c 0,68,69
 503 98 503 98 392 98 c 0,70,71
 301 98 301 98 236 134 c 0,72,73
 198 155 198 155 195 193 c 1,74,75
 198 221 198 221 214 241 c 256,76,77
 230 261 230 261 257 261 c 0,78,79
 279 259 279 259 298 253 c 0,80,81
 313 247 313 247 343 237 c 0,82,83
 365 230 365 230 384 228 c 0,84,85
 394 228 394 228 397 227 c 1,86,87
 423 227 423 227 445 241 c 0,88,89
 464 252 464 252 466 278 c 0,90,91
 466 303 466 303 446 317 c 0,92,93
 425 331 425 331 395 340 c 2,94,95
 390 343 390 343 357 352 c 0,96,97
 319 365 319 365 298 374 c 0,98,99
 270 385 270 385 253 400 c 0,100,101
 229 420 229 420 217 448 c 0,102,103
 207 480 207 480 207 521 c 0,28,29
EndSplineSet
EndChar
StartChar: T
Encoding: 84 84 38
Width: 850
Flags: W
Fore
3 423 m 0,0,1
 2 412 2 412 2 392 c 0,2,3
 2 314 2 314 30.5 242 c 128,-1,4
 59 170 59 170 110.5 114 c 128,-1,5
 162 58 162 58 231 23.5 c 128,-1,6
 300 -11 300 -11 379 -17 c 0,7,8
 389 -18 389 -18 410 -18 c 0,9,10
 488 -18 488 -18 560 10.5 c 128,-1,11
 632 39 632 39 688.5 90.5 c 128,-1,12
 745 142 745 142 779 211.5 c 128,-1,13
 813 281 813 281 819 360 c 0,14,15
 820 371 820 371 820 391 c 0,16,17
 820 469 820 469 791.5 541 c 128,-1,18
 763 613 763 613 711.5 669 c 128,-1,19
 660 725 660 725 591 759 c 128,-1,20
 522 793 522 793 443 799 c 0,21,22
 432 800 432 800 412 800 c 0,23,24
 334 800 334 800 262 771.5 c 128,-1,25
 190 743 190 743 134 691.5 c 128,-1,26
 78 640 78 640 43.5 571 c 128,-1,27
 9 502 9 502 3 423 c 0,0,1
336 162 m 2,28,-1
 336 548 l 1,29,-1
 265 548 l 2,30,31
 234 548 234 548 215 564 c 0,32,33
 197 581 197 581 197 608 c 0,34,35
 197 668 197 668 265 668 c 2,36,-1
 539 668 l 2,37,38
 606 668 606 668 607 608 c 0,39,40
 607 581 607 581 589 564 c 0,41,42
 571 548 571 548 539 548 c 2,43,-1
 466 548 l 1,44,-1
 466 162 l 2,45,46
 466 128 466 128 449 111 c 0,47,48
 431 93 431 93 402 93 c 0,49,50
 374 93 374 93 354 111 c 0,51,52
 336 129 336 129 336 162 c 2,28,-1
EndSplineSet
EndChar
StartChar: U
Encoding: 85 85 39
Width: 850
Flags: W
Fore
3 423 m 0,0,1
 2 412 2 412 2 392 c 0,2,3
 2 314 2 314 30.5 242 c 128,-1,4
 59 170 59 170 110.5 114 c 128,-1,5
 162 58 162 58 231 23.5 c 128,-1,6
 300 -11 300 -11 379 -17 c 0,7,8
 389 -18 389 -18 410 -18 c 0,9,10
 488 -18 488 -18 560 10.5 c 128,-1,11
 632 39 632 39 688.5 90.5 c 128,-1,12
 745 142 745 142 779 211.5 c 128,-1,13
 813 281 813 281 819 360 c 0,14,15
 820 371 820 371 820 391 c 0,16,17
 820 469 820 469 791.5 541 c 128,-1,18
 763 613 763 613 711.5 669 c 128,-1,19
 660 725 660 725 591 759 c 128,-1,20
 522 793 522 793 443 799 c 0,21,22
 432 800 432 800 412 800 c 0,23,24
 334 800 334 800 262 771.5 c 128,-1,25
 190 743 190 743 134 691.5 c 128,-1,26
 78 640 78 640 43.5 571 c 128,-1,27
 9 502 9 502 3 423 c 0,0,1
286 620 m 2,28,-1
 286 342 l 2,29,30
 286 288 286 288 320 257 c 0,31,32
 356 226 356 226 404 226 c 0,33,34
 454 226 454 226 488 257 c 0,35,36
 522 287 522 287 522 342 c 2,37,-1
 522 620 l 2,38,39
 522 652 522 652 540 671 c 0,40,41
 557 688 557 688 586 688 c 0,42,43
 613 688 613 688 633 670 c 0,44,45
 652 653 652 653 652 620 c 2,46,-1
 652 342 l 2,47,48
 652 270 652 270 620 214 c 256,49,50
 588 158 588 158 532 130 c 0,51,52
 477 100 477 100 404 100 c 0,53,54
 335 100 335 100 275 130 c 0,55,56
 219 160 219 160 188 214 c 0,57,58
 156 269 156 269 156 342 c 2,59,-1
 156 620 l 2,60,61
 156 652 156 652 174 671 c 0,62,63
 193 688 193 688 222 688 c 256,64,65
 251 688 251 688 269 671 c 0,66,67
 286 651 286 651 286 620 c 2,28,-1
EndSplineSet
EndChar
StartChar: V
Encoding: 86 86 40
Width: 850
Flags: W
Fore
3 423 m 0,0,1
 2 412 2 412 2 392 c 0,2,3
 2 314 2 314 30.5 242 c 128,-1,4
 59 170 59 170 110.5 114 c 128,-1,5
 162 58 162 58 231 23.5 c 128,-1,6
 300 -11 300 -11 379 -17 c 0,7,8
 389 -18 389 -18 410 -18 c 0,9,10
 488 -18 488 -18 560 10.5 c 128,-1,11
 632 39 632 39 688.5 90.5 c 128,-1,12
 745 142 745 142 779 211.5 c 128,-1,13
 813 281 813 281 819 360 c 0,14,15
 820 371 820 371 820 391 c 0,16,17
 820 469 820 469 791.5 541 c 128,-1,18
 763 613 763 613 711.5 669 c 128,-1,19
 660 725 660 725 591 759 c 128,-1,20
 522 793 522 793 443 799 c 0,21,22
 432 800 432 800 412 800 c 0,23,24
 334 800 334 800 262 771.5 c 128,-1,25
 190 743 190 743 134 691.5 c 128,-1,26
 78 640 78 640 43.5 571 c 128,-1,27
 9 502 9 502 3 423 c 0,0,1
171 572 m 1,28,29
 170 577 170 577 166 585 c 0,30,31
 164 590 164 590 163 593 c 0,32,33
 160 604 160 604 160 613 c 0,34,35
 160 638 160 638 180 658 c 0,36,37
 202 675 202 675 227 675 c 0,38,39
 251 675 251 675 269 660 c 0,40,41
 287 642 287 642 294 619 c 2,42,-1
 405 324 l 1,43,-1
 517 616 l 2,44,45
 536 673 536 673 587 674 c 0,46,47
 604 674 604 674 619 665 c 1,48,49
 631 660 631 660 642 644 c 0,50,51
 652 627 652 627 652 613 c 0,52,53
 652 604 652 604 640 569 c 2,54,-1
 473 153 l 2,55,56
 462 125 462 125 446 109 c 0,57,58
 430 95 430 95 405 95 c 256,59,60
 380 95 380 95 364 109 c 0,61,62
 349 124 349 124 335 155 c 2,63,-1
 171 572 l 1,28,29
EndSplineSet
EndChar
StartChar: W
Encoding: 87 87 41
Width: 850
Flags: W
Fore
3 423 m 0,0,1
 2 412 2 412 2 392 c 0,2,3
 2 314 2 314 30.5 242 c 128,-1,4
 59 170 59 170 110.5 114 c 128,-1,5
 162 58 162 58 231 23.5 c 128,-1,6
 300 -11 300 -11 379 -17 c 0,7,8
 389 -18 389 -18 410 -18 c 0,9,10
 488 -18 488 -18 560 10.5 c 128,-1,11
 632 39 632 39 688.5 90.5 c 128,-1,12
 745 142 745 142 779 211.5 c 128,-1,13
 813 281 813 281 819 360 c 0,14,15
 820 371 820 371 820 391 c 0,16,17
 820 469 820 469 791.5 541 c 128,-1,18
 763 613 763 613 711.5 669 c 128,-1,19
 660 725 660 725 591 759 c 128,-1,20
 522 793 522 793 443 799 c 0,21,22
 432 800 432 800 412 800 c 0,23,24
 334 800 334 800 262 771.5 c 128,-1,25
 190 743 190 743 134 691.5 c 128,-1,26
 78 640 78 640 43.5 571 c 128,-1,27
 9 502 9 502 3 423 c 0,0,1
140 548 m 1,28,29
 139 550 139 550 134 576 c 0,30,31
 130 599 130 599 130 613 c 0,32,33
 130 642 130 642 143 659 c 0,34,35
 157 677 157 677 178 677 c 0,36,37
 222 677 222 677 229 619 c 2,38,-1
 280 312 l 1,39,-1
 282 312 l 1,40,-1
 353 610 l 2,41,42
 361 646 361 646 375 662 c 0,43,44
 389 677 389 677 408 677 c 0,45,46
 429 677 429 677 441 662 c 0,47,48
 454 648 454 648 463 610 c 2,49,-1
 534 312 l 1,50,-1
 535 312 l 1,51,-1
 587 619 l 2,52,53
 594 677 594 677 637 677 c 0,54,55
 659 677 659 677 672 659 c 0,56,57
 685 643 685 643 685 613 c 0,58,59
 685 587 685 587 676 548 c 0,60,61
 674 539 674 539 673 533 c 0,62,63
 667 495 667 495 662 470 c 0,64,65
 654 428 654 428 632 310 c 2,66,-1
 622 255 l 2,67,68
 610 192 610 192 607 177 c 0,69,70
 602 134 602 134 583 114 c 0,71,72
 566 97 566 97 542 97 c 0,73,74
 489 97 489 97 471 167 c 2,75,-1
 408 430 l 1,76,-1
 407 430 l 1,77,-1
 345 167 l 2,78,79
 334 130 334 130 319 115 c 0,80,81
 301 97 301 97 274 97 c 0,82,83
 249 97 249 97 234 113 c 0,84,85
 217 128 217 128 209 171 c 0,86,87
 196 249 196 249 179 334 c 0,88,89
 173 366 173 366 161 430 c 0,90,91
 155 462 155 462 151 482 c 0,92,93
 139 548 139 548 138 548 c 1,94,-1
 140 548 l 1,28,29
EndSplineSet
EndChar
StartChar: X
Encoding: 88 88 42
Width: 850
Flags: W
Fore
3 423 m 0,0,1
 2 412 2 412 2 392 c 0,2,3
 2 314 2 314 30.5 242 c 128,-1,4
 59 170 59 170 110.5 114 c 128,-1,5
 162 58 162 58 231 23.5 c 128,-1,6
 300 -11 300 -11 379 -17 c 0,7,8
 389 -18 389 -18 410 -18 c 0,9,10
 488 -18 488 -18 560 10.5 c 128,-1,11
 632 39 632 39 688.5 90.5 c 128,-1,12
 745 142 745 142 779 211.5 c 128,-1,13
 813 281 813 281 819 360 c 0,14,15
 820 371 820 371 820 391 c 0,16,17
 820 469 820 469 791.5 541 c 128,-1,18
 763 613 763 613 711.5 669 c 128,-1,19
 660 725 660 725 591 759 c 128,-1,20
 522 793 522 793 443 799 c 0,21,22
 432 800 432 800 412 800 c 0,23,24
 334 800 334 800 262 771.5 c 128,-1,25
 190 743 190 743 134 691.5 c 128,-1,26
 78 640 78 640 43.5 571 c 128,-1,27
 9 502 9 502 3 423 c 0,0,1
207 562 m 2,28,29
 189 584 189 584 186 609 c 1,30,31
 192 638 192 638 208 656 c 0,32,33
 222 672 222 672 252 673 c 0,34,35
 289 673 289 673 313 638 c 2,36,-1
 404 514 l 1,37,-1
 489 634 l 2,38,39
 506 656 506 656 520 664 c 0,40,41
 535 673 535 673 558 673 c 0,42,43
 582 672 582 672 600 654 c 0,44,45
 619 637 619 637 619 613 c 0,46,47
 619 585 619 585 602 564 c 2,48,-1
 481 405 l 1,49,-1
 632 204 l 2,50,51
 647 183 647 183 649 154 c 0,52,53
 648 127 648 127 628 110 c 0,54,55
 606 93 606 93 575 93 c 1,56,57
 555 96 555 96 546 104 c 0,58,59
 539 110 539 110 526 127 c 2,60,-1
 524 129 l 1,61,-1
 404 293 l 1,62,-1
 282 126 l 2,63,64
 255 93 255 93 225 93 c 256,65,66
 195 93 195 93 177 109 c 0,67,68
 158 125 158 125 158 156 c 0,69,70
 158 173 158 173 162 181 c 1,71,72
 164 187 164 187 178 209 c 2,73,-1
 325 405 l 1,74,-1
 207 562 l 2,28,29
EndSplineSet
EndChar
StartChar: Y
Encoding: 89 89 43
Width: 850
Flags: W
Fore
3 423 m 0,0,1
 2 412 2 412 2 392 c 0,2,3
 2 314 2 314 30.5 242 c 128,-1,4
 59 170 59 170 110.5 114 c 128,-1,5
 162 58 162 58 231 23.5 c 128,-1,6
 300 -11 300 -11 379 -17 c 0,7,8
 389 -18 389 -18 410 -18 c 0,9,10
 488 -18 488 -18 560 10.5 c 128,-1,11
 632 39 632 39 688.5 90.5 c 128,-1,12
 745 142 745 142 779 211.5 c 128,-1,13
 813 281 813 281 819 360 c 0,14,15
 820 371 820 371 820 391 c 0,16,17
 820 469 820 469 791.5 541 c 128,-1,18
 763 613 763 613 711.5 669 c 128,-1,19
 660 725 660 725 591 759 c 128,-1,20
 522 793 522 793 443 799 c 0,21,22
 432 800 432 800 412 800 c 0,23,24
 334 800 334 800 262 771.5 c 128,-1,25
 190 743 190 743 134 691.5 c 128,-1,26
 78 640 78 640 43.5 571 c 128,-1,27
 9 502 9 502 3 423 c 0,0,1
338 369 m 1,28,-1
 195 562 l 2,29,30
 172 591 172 591 172 622 c 0,31,32
 173 645 173 645 194 661 c 0,33,34
 216 675 216 675 241 675 c 0,35,36
 261 675 261 675 273 667 c 1,37,38
 285 662 285 662 302 640 c 2,39,-1
 404 494 l 1,40,-1
 505 640 l 2,41,42
 529 675 529 675 565 675 c 0,43,44
 591 675 591 675 611 661 c 256,45,46
 631 647 631 647 634 622 c 0,47,48
 634 590 634 590 613 562 c 2,49,-1
 468 369 l 1,50,-1
 468 165 l 2,51,52
 468 133 468 133 451 113 c 0,53,54
 433 95 433 95 402 95 c 0,55,56
 372 95 372 95 355 115 c 256,57,58
 338 135 338 135 338 164 c 2,59,-1
 338 369 l 1,28,-1
EndSplineSet
EndChar
StartChar: Z
Encoding: 90 90 44
Width: 850
Flags: W
Fore
3 423 m 0,0,1
 2 412 2 412 2 392 c 0,2,3
 2 314 2 314 30.5 242 c 128,-1,4
 59 170 59 170 110.5 114 c 128,-1,5
 162 58 162 58 231 23.5 c 128,-1,6
 300 -11 300 -11 379 -17 c 0,7,8
 389 -18 389 -18 410 -18 c 0,9,10
 488 -18 488 -18 560 10.5 c 128,-1,11
 632 39 632 39 688.5 90.5 c 128,-1,12
 745 142 745 142 779 211.5 c 128,-1,13
 813 281 813 281 819 360 c 0,14,15
 820 371 820 371 820 391 c 0,16,17
 820 469 820 469 791.5 541 c 128,-1,18
 763 613 763 613 711.5 669 c 128,-1,19
 660 725 660 725 591 759 c 128,-1,20
 522 793 522 793 443 799 c 0,21,22
 432 800 432 800 412 800 c 0,23,24
 334 800 334 800 262 771.5 c 128,-1,25
 190 743 190 743 134 691.5 c 128,-1,26
 78 640 78 640 43.5 571 c 128,-1,27
 9 502 9 502 3 423 c 0,0,1
350 220 m 1,28,-1
 562 220 l 2,29,30
 594 220 594 220 613 204 c 0,31,32
 631 188 631 188 631 160 c 0,33,34
 631 131 631 131 613 116 c 0,35,36
 596 100 596 100 562 100 c 2,37,-1
 275 100 l 2,38,39
 225 100 225 100 204 119 c 0,40,41
 184 137 184 137 182 172 c 0,42,43
 182 194 182 194 208 228 c 2,44,-1
 451 555 l 1,45,-1
 261 555 l 2,46,47
 228 555 228 555 210 570 c 0,48,49
 192 587 192 587 192 613 c 256,50,51
 192 639 192 639 210 655 c 0,52,53
 227 670 227 670 261 670 c 2,54,-1
 539 670 l 2,55,56
 584 670 584 670 601 650 c 0,57,58
 619 631 619 631 619 605 c 0,59,60
 619 588 619 588 605 563 c 2,61,-1
 603 559 l 2,62,63
 580 525 580 525 558 497 c 2,64,-1
 350 220 l 1,28,-1
EndSplineSet
EndChar
